<?xml version="1.0" encoding="us-ascii" standalone="no"?><svg xmlns="http://www.w3.org/2000/svg" xmlns:xlink="http://www.w3.org/1999/xlink" contentStyleType="text/css" height="454px" preserveAspectRatio="none" style="width:696px;height:454px;background:#FFFFFF;" version="1.1" viewBox="0 0 696 454" width="696px" zoomAndPan="magnify"><defs/><g><!--entity mosaic--><g id="elem_mosaic"><rect fill="#FEECCD" height="62.9766" rx="5" ry="5" style="stroke:#7A003C;stroke-width:1.0;" width="111" x="511" y="7"/><rect fill="#FEECCD" height="10" style="stroke:#7A003C;stroke-width:1.0;" width="15" x="602" y="12"/><rect fill="#FEECCD" height="2" style="stroke:#7A003C;stroke-width:1.0;" width="4" x="600" y="14"/><rect fill="#FEECCD" height="2" style="stroke:#7A003C;stroke-width:1.0;" width="4" x="600" y="18"/><text fill="#000000" font-family="sans-serif" font-size="14" font-style="italic" lengthAdjust="spacing" textLength="71" x="526" y="40.5352">&#171;external&#187;</text><text fill="#000000" font-family="sans-serif" font-size="14" lengthAdjust="spacing" textLength="47" x="538" y="57.0234">Mosaic</text></g><!--entity Imeal_plan--><g id="elem_Imeal_plan"><ellipse cx="566.5" cy="122.98" fill="#7A003C" rx="8" ry="8" style="stroke:#7A003C;stroke-width:1.0;"/><text fill="#000000" font-family="sans-serif" font-size="14" lengthAdjust="spacing" textLength="61" x="536" y="153.5152">MealPlan</text><text fill="#000000" font-family="sans-serif" font-size="14" lengthAdjust="spacing" textLength="58" x="536" y="170.0034">Payment</text></g><!--entity payment--><g id="elem_payment"><rect fill="#FEECCD" height="79.4648" rx="5" ry="5" style="stroke:#7A003C;stroke-width:1.0;" width="111" x="511" y="359.47"/><rect fill="#FEECCD" height="10" style="stroke:#7A003C;stroke-width:1.0;" width="15" x="602" y="364.47"/><rect fill="#FEECCD" height="2" style="stroke:#7A003C;stroke-width:1.0;" width="4" x="600" y="366.47"/><rect fill="#FEECCD" height="2" style="stroke:#7A003C;stroke-width:1.0;" width="4" x="600" y="370.47"/><text fill="#000000" font-family="sans-serif" font-size="14" font-style="italic" lengthAdjust="spacing" textLength="71" x="526" y="393.0052">&#171;external&#187;</text><text fill="#000000" font-family="sans-serif" font-size="14" lengthAdjust="spacing" textLength="58" x="532.5" y="409.4934">Payment</text><text fill="#000000" font-family="sans-serif" font-size="14" lengthAdjust="spacing" textLength="57" x="532.5" y="425.9817">Gateway</text></g><!--entity Iprocess_payment--><g id="elem_Iprocess_payment"><ellipse cx="566.5" cy="306.47" fill="#7A003C" rx="8" ry="8" style="stroke:#7A003C;stroke-width:1.0;"/><text fill="#000000" font-family="sans-serif" font-size="14" lengthAdjust="spacing" textLength="52" x="537.5" y="337.0052">Process</text><text fill="#000000" font-family="sans-serif" font-size="14" lengthAdjust="spacing" textLength="58" x="537.5" y="353.4934">Payment</text></g><!--entity menu--><g id="elem_menu"><rect fill="#FEECCD" height="62.9766" rx="5" ry="5" style="stroke:#7A003C;stroke-width:1.0;" width="97" x="104" y="7"/><rect fill="#FEECCD" height="10" style="stroke:#7A003C;stroke-width:1.0;" width="15" x="181" y="12"/><rect fill="#FEECCD" height="2" style="stroke:#7A003C;stroke-width:1.0;" width="4" x="179" y="14"/><rect fill="#FEECCD" height="2" style="stroke:#7A003C;stroke-width:1.0;" width="4" x="179" y="18"/><text fill="#000000" font-family="sans-serif" font-size="14" lengthAdjust="spacing" textLength="38" x="119" y="40.5352">Menu</text><text fill="#000000" font-family="sans-serif" font-size="14" lengthAdjust="spacing" textLength="57" x="119" y="57.0234">Provider</text></g><!--entity Imenu_lookup--><g id="elem_Imenu_lookup"><ellipse cx="152.5" cy="122.98" fill="#7A003C" rx="8" ry="8" style="stroke:#7A003C;stroke-width:1.0;"/><text fill="#000000" font-family="sans-serif" font-size="14" lengthAdjust="spacing" textLength="51" x="127" y="153.5152">Lookup</text></g><!--entity Imenu_mgmt--><g id="elem_Imenu_mgmt"><ellipse cx="50.5" cy="38.49" fill="#7A003C" rx="8" ry="8" style="stroke:#7A003C;stroke-width:1.0;"/><text fill="#000000" font-family="sans-serif" font-size="14" lengthAdjust="spacing" textLength="54" x="23.5" y="69.0252">Manage</text><text fill="#000000" font-family="sans-serif" font-size="14" lengthAdjust="spacing" textLength="38" x="23.5" y="85.5134">Menu</text></g><!--entity billing--><g id="elem_billing"><rect fill="#FEECCD" height="46.4883" rx="5" ry="5" style="stroke:#7A003C;stroke-width:1.0;" width="82" x="525.5" y="191.48"/><rect fill="#FEECCD" height="10" style="stroke:#7A003C;stroke-width:1.0;" width="15" x="587.5" y="196.48"/><rect fill="#FEECCD" height="2" style="stroke:#7A003C;stroke-width:1.0;" width="4" x="585.5" y="198.48"/><rect fill="#FEECCD" height="2" style="stroke:#7A003C;stroke-width:1.0;" width="4" x="585.5" y="202.48"/><text fill="#000000" font-family="sans-serif" font-size="14" lengthAdjust="spacing" textLength="42" x="540.5" y="225.0152">Billing</text></g><!--entity Ibilling--><g id="elem_Ibilling"><ellipse cx="471.5" cy="214.72" fill="#7A003C" rx="8" ry="8" style="stroke:#7A003C;stroke-width:1.0;"/><text fill="#000000" font-family="sans-serif" font-size="14" lengthAdjust="spacing" textLength="60" x="441.5" y="245.2552">BillOrder</text></g><!--entity Ipending--><g id="elem_Ipending"><ellipse cx="661.5" cy="214.72" fill="#7A003C" rx="8" ry="8" style="stroke:#7A003C;stroke-width:1.0;"/><text fill="#000000" font-family="sans-serif" font-size="14" lengthAdjust="spacing" textLength="56" x="633.5" y="245.2552">Pending</text><text fill="#000000" font-family="sans-serif" font-size="14" lengthAdjust="spacing" textLength="55" x="633.5" y="261.7434">Invoices</text></g><!--entity patrons--><g id="elem_patrons"><rect fill="#FEECCD" height="62.9766" rx="5" ry="5" style="stroke:#7A003C;stroke-width:1.0;" width="100" x="102.5" y="367.71"/><rect fill="#FEECCD" height="10" style="stroke:#7A003C;stroke-width:1.0;" width="15" x="182.5" y="372.71"/><rect fill="#FEECCD" height="2" style="stroke:#7A003C;stroke-width:1.0;" width="4" x="180.5" y="374.71"/><rect fill="#FEECCD" height="2" style="stroke:#7A003C;stroke-width:1.0;" width="4" x="180.5" y="378.71"/><text fill="#000000" font-family="sans-serif" font-size="14" lengthAdjust="spacing" textLength="45" x="117.5" y="401.2452">Patron</text><text fill="#000000" font-family="sans-serif" font-size="14" lengthAdjust="spacing" textLength="60" x="117.5" y="417.7334">Manager</text></g><!--entity Iloyalty--><g id="elem_Iloyalty"><ellipse cx="152.5" cy="306.47" fill="#7A003C" rx="8" ry="8" style="stroke:#7A003C;stroke-width:1.0;"/><text fill="#000000" font-family="sans-serif" font-size="14" lengthAdjust="spacing" textLength="47" x="129" y="337.0052">Loyalty</text></g><!--entity Ipatrons_mgmt--><g id="elem_Ipatrons_mgmt"><ellipse cx="48.5" cy="399.2" fill="#7A003C" rx="8" ry="8" style="stroke:#7A003C;stroke-width:1.0;"/><text fill="#000000" font-family="sans-serif" font-size="14" lengthAdjust="spacing" textLength="54" x="21.5" y="429.7352">Manage</text><text fill="#000000" font-family="sans-serif" font-size="14" lengthAdjust="spacing" textLength="52" x="21.5" y="446.2234">Patrons</text></g><!--entity ordering--><g id="elem_ordering"><rect fill="#FEECCD" height="62.9766" rx="5" ry="5" style="stroke:#7A003C;stroke-width:1.0;" width="100" x="317.5" y="183.23"/><rect fill="#FEECCD" height="10" style="stroke:#7A003C;stroke-width:1.0;" width="15" x="397.5" y="188.23"/><rect fill="#FEECCD" height="2" style="stroke:#7A003C;stroke-width:1.0;" width="4" x="395.5" y="190.23"/><rect fill="#FEECCD" height="2" style="stroke:#7A003C;stroke-width:1.0;" width="4" x="395.5" y="194.23"/><text fill="#000000" font-family="sans-serif" font-size="14" lengthAdjust="spacing" textLength="40" x="332.5" y="216.7652">Order</text><text fill="#000000" font-family="sans-serif" font-size="14" lengthAdjust="spacing" textLength="60" x="332.5" y="233.2534">Manager</text></g><!--entity Iprocess_order--><g id="elem_Iprocess_order"><ellipse cx="263.5" cy="214.72" fill="#7A003C" rx="8" ry="8" style="stroke:#7A003C;stroke-width:1.0;"/><text fill="#000000" font-family="sans-serif" font-size="14" lengthAdjust="spacing" textLength="52" x="237.5" y="245.2552">Process</text><text fill="#000000" font-family="sans-serif" font-size="14" lengthAdjust="spacing" textLength="40" x="237.5" y="261.7434">Order</text></g><!--entity mobile--><g id="elem_mobile"><rect fill="#FEECCD" height="46.4883" rx="5" ry="5" style="stroke:#7A003C;stroke-width:1.0;" width="114" x="95.5" y="191.48"/><rect fill="#FEECCD" height="10" style="stroke:#7A003C;stroke-width:1.0;" width="15" x="189.5" y="196.48"/><rect fill="#FEECCD" height="2" style="stroke:#7A003C;stroke-width:1.0;" width="4" x="187.5" y="198.48"/><rect fill="#FEECCD" height="2" style="stroke:#7A003C;stroke-width:1.0;" width="4" x="187.5" y="202.48"/><text fill="#000000" font-family="sans-serif" font-size="14" lengthAdjust="spacing" textLength="74" x="110.5" y="225.0152">MobileApp</text></g><!--entity P--><g id="elem_P"><ellipse cx="28.5" cy="184.98" fill="#FEECCD" rx="8" ry="8" style="stroke:#7A003C;stroke-width:1.0;"/><path d="M28.5,192.98 L28.5,219.98 M15.5,200.98 L41.5,200.98 M28.5,219.98 L15.5,234.98 M28.5,219.98 L41.5,234.98 " fill="none" style="stroke:#7A003C;stroke-width:1.0;"/><text fill="#7A003C" font-family="sans-serif" font-size="14" lengthAdjust="spacing" textLength="45" x="6" y="250.5152">Patron</text></g><!--link mosaic to Imeal_plan--><g id="link_mosaic_Imeal_plan"><path d="M566.5,70.2 C566.5,85.96 566.5,103.92 566.5,114 " fill="none" id="mosaic-Imeal_plan" style="stroke:#7A003C;stroke-width:1.0;"/></g><!--link Iprocess_payment to payment--><g id="link_Iprocess_payment_payment"><path d="M566.5,315.2 C566.5,325.06 566.5,342.81 566.5,359.37 " fill="none" id="Iprocess_payment-payment" style="stroke:#7A003C;stroke-width:1.0;"/></g><!--link menu to Imenu_lookup--><g id="link_menu_Imenu_lookup"><path d="M152.5,70.2 C152.5,85.96 152.5,103.92 152.5,114 " fill="none" id="menu-Imenu_lookup" style="stroke:#7A003C;stroke-width:1.0;"/></g><!--link Imenu_mgmt to menu--><g id="link_Imenu_mgmt_menu"><path d="M59.79,38.49 C69.86,38.49 84.5,38.49 84.5,38.49 C84.5,38.49 94.67,38.49 103.88,38.49 " fill="none" id="Imenu_mgmt-menu" style="stroke:#7A003C;stroke-width:1.0;"/></g><!--link billing to Iprocess_payment--><g id="link_billing_Iprocess_payment"><path d="M566.5,238.37 C566.5,255.12 566.5,277.4 566.5,291.59 " fill="none" id="billing-to-Iprocess_payment" style="stroke:#7A003C;stroke-width:1.0;stroke-dasharray:7.0,7.0;"/><polygon fill="#7A003C" points="566.5,296.49,570.5,287.49,566.5,291.49,562.5,287.49,566.5,296.49" style="stroke:#7A003C;stroke-width:1.0;"/></g><!--reverse link Imeal_plan to billing--><g id="link_Imeal_plan_billing"><path d="M566.5,137.84 C566.5,152.02 566.5,174.28 566.5,191.03 " fill="none" id="Imeal_plan-backto-billing" style="stroke:#7A003C;stroke-width:1.0;stroke-dasharray:7.0,7.0;"/><polygon fill="#7A003C" points="566.5,132.94,562.5,141.94,566.5,137.94,570.5,141.94,566.5,132.94" style="stroke:#7A003C;stroke-width:1.0;"/></g><!--link Ibilling to billing--><g id="link_Ibilling_billing"><path d="M480.83,214.72 C490.17,214.72 503.17,214.72 503.17,214.72 C503.17,214.72 515.85,214.72 525.16,214.72 " fill="none" id="Ibilling-billing" style="stroke:#7A003C;stroke-width:1.0;"/></g><!--link billing to Ipending--><g id="link_billing_Ipending"><path d="M607.84,214.72 C617.15,214.72 629.83,214.72 629.83,214.72 C629.83,214.72 642.83,214.72 652.17,214.72 " fill="none" id="billing-Ipending" style="stroke:#7A003C;stroke-width:1.0;"/></g><!--link Iloyalty to patrons--><g id="link_Iloyalty_patrons"><path d="M152.5,315.2 C152.5,326.69 152.5,348.89 152.5,367.44 " fill="none" id="Iloyalty-patrons" style="stroke:#7A003C;stroke-width:1.0;"/></g><!--link Ipatrons_mgmt to patrons--><g id="link_Ipatrons_mgmt_patrons"><path d="M57.97,399.2 C68.24,399.2 83.17,399.2 83.17,399.2 C83.17,399.2 92.95,399.2 102.12,399.2 " fill="none" id="Ipatrons_mgmt-patrons" style="stroke:#7A003C;stroke-width:1.0;"/></g><!--link ordering to Ibilling--><g id="link_ordering_Ibilling"><path d="M417.88,214.72 C427.05,214.72 436.83,214.72 436.83,214.72 C436.83,214.72 446.88,214.72 456.16,214.72 " fill="none" id="ordering-to-Ibilling" style="stroke:#7A003C;stroke-width:1.0;stroke-dasharray:7.0,7.0;"/><polygon fill="#7A003C" points="461.03,214.72,452.03,210.72,456.03,214.72,452.03,218.72,461.03,214.72" style="stroke:#7A003C;stroke-width:1.0;"/></g><!--link Iprocess_order to ordering--><g id="link_Iprocess_order_ordering"><path d="M272.97,214.72 C283.24,214.72 298.17,214.72 298.17,214.72 C298.17,214.72 307.95,214.72 317.12,214.72 " fill="none" id="Iprocess_order-ordering" style="stroke:#7A003C;stroke-width:1.0;"/></g><!--reverse link Imenu_lookup to mobile--><g id="link_Imenu_lookup_mobile"><path d="M152.5,137.84 C152.5,152.02 152.5,174.28 152.5,191.03 " fill="none" id="Imenu_lookup-backto-mobile" style="stroke:#7A003C;stroke-width:1.0;stroke-dasharray:7.0,7.0;"/><polygon fill="#7A003C" points="152.5,132.94,148.5,141.94,152.5,137.94,156.5,141.94,152.5,132.94" style="stroke:#7A003C;stroke-width:1.0;"/></g><!--link mobile to Iloyalty--><g id="link_mobile_Iloyalty"><path d="M152.5,238.37 C152.5,255.12 152.5,277.4 152.5,291.59 " fill="none" id="mobile-to-Iloyalty" style="stroke:#7A003C;stroke-width:1.0;stroke-dasharray:7.0,7.0;"/><polygon fill="#7A003C" points="152.5,296.49,156.5,287.49,152.5,291.49,148.5,287.49,152.5,296.49" style="stroke:#7A003C;stroke-width:1.0;"/></g><!--link mobile to Iprocess_order--><g id="link_mobile_Iprocess_order"><path d="M209.73,214.72 C218.37,214.72 226.5,214.72 226.5,214.72 C226.5,214.72 238.17,214.72 248.4,214.72 " fill="none" id="mobile-to-Iprocess_order" style="stroke:#7A003C;stroke-width:1.0;stroke-dasharray:7.0,7.0;"/><polygon fill="#7A003C" points="253.16,214.72,244.16,210.72,248.16,214.72,244.16,218.72,253.16,214.72" style="stroke:#7A003C;stroke-width:1.0;"/></g><!--link P to mobile--><g id="link_P_mobile"><path d="M51.1,214.72 C60.75,214.72 69.83,214.72 69.83,214.72 C69.83,214.72 79.49,214.72 89.46,214.72 " fill="none" id="P-to-mobile" style="stroke:#7A003C;stroke-width:1.0;stroke-dasharray:7.0,7.0;"/><polygon fill="#7A003C" points="94.3,214.72,85.3,210.72,89.3,214.72,85.3,218.72,94.3,214.72" style="stroke:#7A003C;stroke-width:1.0;"/></g><!--SRC=[dLFBQiCm4BplLwY-j0t4kJIt46XBAOQM-WC2HdL4495NGdBI-k-hfr-O5khJQhGxEvfTtt2inUN8I9vlAjDsWctKfH6v3y6SEIggQKCqnRDXYf3j24HvP0vys0BSajNovsx8otVBD591dcMZ939i3LdzKWDroYEDD9JN97pKaEpT0ndPxLXatU_XxjvUC2fAGV609UqQMvkv_AAnSAKi3f5glHw3erOgbFMT8iq1NsdBlcYtqBFKicR6p5ggW5QH4EQ0av12-Ckx0l_l7SDBRvkDhKmjh_p8TERLlqbvlgXiCBTm5PNmSF2K8Zsn0xhgRCXeJaqBdZsOEHGDzsJj-u_rV78XE9wIfATm35hSuKCxQICviI1OpV1eumCMU9NSsXcz3Z0axZpVBmoWdpVPvNdI0OdVIatGWFJCqnLfjKGJryF5rXllKMzfHqNRPSCRH40W1M7udcPYSQ1Bhmg7OFJaH8RgaIxfd7EwdJ1luqnNlwZHu_6Q-cBeAPo1lKEJ7DixPIsihT_MMd2dXogriAJJ_zhsOF6FTk6ZKXcCTycFAgH1pFR3JOOcR3z_2T2wbJeDoB-rXD8bHhOV]--></g></svg>