<?xml version="1.0" encoding="us-ascii" standalone="no"?><svg xmlns="http://www.w3.org/2000/svg" xmlns:xlink="http://www.w3.org/1999/xlink" contentStyleType="text/css" height="446px" preserveAspectRatio="none" style="width:590px;height:446px;background:#FFFFFF;" version="1.1" viewBox="0 0 590 446" width="590px" zoomAndPan="magnify"><defs/><g><!--entity menu--><g id="elem_menu"><rect fill="#FEECCD" height="62.9766" rx="5" ry="5" style="stroke:#7A003C;stroke-width:1.0;" width="97" x="119.5" y="7"/><rect fill="#FEECCD" height="10" style="stroke:#7A003C;stroke-width:1.0;" width="15" x="196.5" y="12"/><rect fill="#FEECCD" height="2" style="stroke:#7A003C;stroke-width:1.0;" width="4" x="194.5" y="14"/><rect fill="#FEECCD" height="2" style="stroke:#7A003C;stroke-width:1.0;" width="4" x="194.5" y="18"/><text fill="#000000" font-family="sans-serif" font-size="14" lengthAdjust="spacing" textLength="38" x="134.5" y="40.5352">Menu</text><text fill="#000000" font-family="sans-serif" font-size="14" lengthAdjust="spacing" textLength="57" x="134.5" y="57.0234">Provider</text></g><!--entity Imenu_lookup--><g id="elem_Imenu_lookup"><ellipse cx="66" cy="38.49" fill="#7A003C" rx="8" ry="8" style="stroke:#7A003C;stroke-width:1.0;"/><text fill="#000000" font-family="sans-serif" font-size="14" lengthAdjust="spacing" textLength="51" x="40.5" y="69.0252">Lookup</text></g><!--entity Imenu_mgmt--><g id="elem_Imenu_mgmt"><ellipse cx="168" cy="122.98" fill="#7A003C" rx="8" ry="8" style="stroke:#7A003C;stroke-width:1.0;"/><text fill="#000000" font-family="sans-serif" font-size="14" lengthAdjust="spacing" textLength="54" x="141" y="153.5152">Manage</text><text fill="#000000" font-family="sans-serif" font-size="14" lengthAdjust="spacing" textLength="38" x="141" y="170.0034">Menu</text></g><!--entity billing--><g id="elem_billing"><rect fill="#FEECCD" height="46.4883" rx="5" ry="5" style="stroke:#7A003C;stroke-width:1.0;" width="82" x="378" y="384.2"/><rect fill="#FEECCD" height="10" style="stroke:#7A003C;stroke-width:1.0;" width="15" x="440" y="389.2"/><rect fill="#FEECCD" height="2" style="stroke:#7A003C;stroke-width:1.0;" width="4" x="438" y="391.2"/><rect fill="#FEECCD" height="2" style="stroke:#7A003C;stroke-width:1.0;" width="4" x="438" y="395.2"/><text fill="#000000" font-family="sans-serif" font-size="14" lengthAdjust="spacing" textLength="42" x="393" y="417.7352">Billing</text></g><!--entity Ibilling--><g id="elem_Ibilling"><ellipse cx="324" cy="407.44" fill="#7A003C" rx="8" ry="8" style="stroke:#7A003C;stroke-width:1.0;"/><text fill="#000000" font-family="sans-serif" font-size="14" lengthAdjust="spacing" textLength="60" x="294" y="437.9752">BillOrder</text></g><!--entity Ipending--><g id="elem_Ipending"><ellipse cx="419" cy="322.95" fill="#7A003C" rx="8" ry="8" style="stroke:#7A003C;stroke-width:1.0;"/><text fill="#000000" font-family="sans-serif" font-size="14" lengthAdjust="spacing" textLength="56" x="391" y="353.4852">Pending</text><text fill="#000000" font-family="sans-serif" font-size="14" lengthAdjust="spacing" textLength="55" x="391" y="369.9734">Invoices</text></g><!--entity patrons--><g id="elem_patrons"><rect fill="#FEECCD" height="62.9766" rx="5" ry="5" style="stroke:#7A003C;stroke-width:1.0;" width="100" x="319" y="191.48"/><rect fill="#FEECCD" height="10" style="stroke:#7A003C;stroke-width:1.0;" width="15" x="399" y="196.48"/><rect fill="#FEECCD" height="2" style="stroke:#7A003C;stroke-width:1.0;" width="4" x="397" y="198.48"/><rect fill="#FEECCD" height="2" style="stroke:#7A003C;stroke-width:1.0;" width="4" x="397" y="202.48"/><text fill="#000000" font-family="sans-serif" font-size="14" lengthAdjust="spacing" textLength="45" x="334" y="225.0152">Patron</text><text fill="#000000" font-family="sans-serif" font-size="14" lengthAdjust="spacing" textLength="60" x="334" y="241.5034">Manager</text></g><!--entity Iloyalty--><g id="elem_Iloyalty"><ellipse cx="369" cy="122.98" fill="#7A003C" rx="8" ry="8" style="stroke:#7A003C;stroke-width:1.0;"/><text fill="#000000" font-family="sans-serif" font-size="14" lengthAdjust="spacing" textLength="47" x="345.5" y="153.5152">Loyalty</text></g><!--entity Ipatrons_mgmt--><g id="elem_Ipatrons_mgmt"><ellipse cx="265" cy="222.97" fill="#7A003C" rx="8" ry="8" style="stroke:#7A003C;stroke-width:1.0;"/><text fill="#000000" font-family="sans-serif" font-size="14" lengthAdjust="spacing" textLength="54" x="238" y="253.5052">Manage</text><text fill="#000000" font-family="sans-serif" font-size="14" lengthAdjust="spacing" textLength="52" x="238" y="269.9934">Patrons</text></g><!--entity ordering--><g id="elem_ordering"><rect fill="#FEECCD" height="62.9766" rx="5" ry="5" style="stroke:#7A003C;stroke-width:1.0;" width="100" x="170" y="375.95"/><rect fill="#FEECCD" height="10" style="stroke:#7A003C;stroke-width:1.0;" width="15" x="250" y="380.95"/><rect fill="#FEECCD" height="2" style="stroke:#7A003C;stroke-width:1.0;" width="4" x="248" y="382.95"/><rect fill="#FEECCD" height="2" style="stroke:#7A003C;stroke-width:1.0;" width="4" x="248" y="386.95"/><text fill="#000000" font-family="sans-serif" font-size="14" lengthAdjust="spacing" textLength="40" x="185" y="409.4852">Order</text><text fill="#000000" font-family="sans-serif" font-size="14" lengthAdjust="spacing" textLength="60" x="185" y="425.9734">Manager</text></g><!--entity Iprocess_order--><g id="elem_Iprocess_order"><ellipse cx="219" cy="322.95" fill="#7A003C" rx="8" ry="8" style="stroke:#7A003C;stroke-width:1.0;"/><text fill="#000000" font-family="sans-serif" font-size="14" lengthAdjust="spacing" textLength="52" x="193" y="353.4852">Process</text><text fill="#000000" font-family="sans-serif" font-size="14" lengthAdjust="spacing" textLength="40" x="193" y="369.9734">Order</text></g><!--entity Ilist_impeding--><g id="elem_Ilist_impeding"><ellipse cx="116" cy="407.44" fill="#7A003C" rx="8" ry="8" style="stroke:#7A003C;stroke-width:1.0;"/><text fill="#000000" font-family="sans-serif" font-size="14" lengthAdjust="spacing" textLength="88" x="72" y="437.9752">ListImpeding</text></g><!--entity mosaic--><g id="elem_mosaic"><rect fill="#FEECCD" height="62.9766" rx="5" ry="5" style="stroke:#7A003C;stroke-width:1.0;" width="111" x="473.5" y="291.47"/><rect fill="#FEECCD" height="10" style="stroke:#7A003C;stroke-width:1.0;" width="15" x="564.5" y="296.47"/><rect fill="#FEECCD" height="2" style="stroke:#7A003C;stroke-width:1.0;" width="4" x="562.5" y="298.47"/><rect fill="#FEECCD" height="2" style="stroke:#7A003C;stroke-width:1.0;" width="4" x="562.5" y="302.47"/><text fill="#000000" font-family="sans-serif" font-size="14" font-style="italic" lengthAdjust="spacing" textLength="71" x="488.5" y="325.0052">&#171;external&#187;</text><text fill="#000000" font-family="sans-serif" font-size="14" lengthAdjust="spacing" textLength="47" x="500.5" y="341.4934">Mosaic</text></g><!--entity web--><g id="elem_web"><rect fill="#FEECCD" height="62.9766" rx="5" ry="5" style="stroke:#7A003C;stroke-width:1.0;" width="85" x="125.5" y="191.48"/><rect fill="#FEECCD" height="10" style="stroke:#7A003C;stroke-width:1.0;" width="15" x="190.5" y="196.48"/><rect fill="#FEECCD" height="2" style="stroke:#7A003C;stroke-width:1.0;" width="4" x="188.5" y="198.48"/><rect fill="#FEECCD" height="2" style="stroke:#7A003C;stroke-width:1.0;" width="4" x="188.5" y="202.48"/><text fill="#000000" font-family="sans-serif" font-size="14" lengthAdjust="spacing" textLength="29" x="140.5" y="225.0152">Web</text><text fill="#000000" font-family="sans-serif" font-size="14" lengthAdjust="spacing" textLength="45" x="140.5" y="241.5034">Admin</text></g><!--entity S--><g id="elem_S"><ellipse cx="43" cy="184.98" fill="#FEECCD" rx="8" ry="8" style="stroke:#7A003C;stroke-width:1.0;"/><path d="M43,192.98 L43,219.98 M30,200.98 L56,200.98 M43,219.98 L30,234.98 M43,219.98 L56,234.98 " fill="none" style="stroke:#7A003C;stroke-width:1.0;"/><text fill="#7A003C" font-family="sans-serif" font-size="14" lengthAdjust="spacing" textLength="74" x="6" y="250.5152">Restaurant</text><text fill="#7A003C" font-family="sans-serif" font-size="14" lengthAdjust="spacing" textLength="31" x="6" y="267.0034">Staff</text></g><!--link Imenu_lookup to menu--><g id="link_Imenu_lookup_menu"><path d="M75.29,38.49 C85.36,38.49 100,38.49 100,38.49 C100,38.49 110.17,38.49 119.38,38.49 " fill="none" id="Imenu_lookup-menu" style="stroke:#7A003C;stroke-width:1.0;"/></g><!--link menu to Imenu_mgmt--><g id="link_menu_Imenu_mgmt"><path d="M168,70.2 C168,85.96 168,103.92 168,114 " fill="none" id="menu-Imenu_mgmt" style="stroke:#7A003C;stroke-width:1.0;"/></g><!--link Ibilling to billing--><g id="link_Ibilling_billing"><path d="M333.33,407.44 C342.67,407.44 355.67,407.44 355.67,407.44 C355.67,407.44 368.35,407.44 377.66,407.44 " fill="none" id="Ibilling-billing" style="stroke:#7A003C;stroke-width:1.0;"/></g><!--link Ipending to billing--><g id="link_Ipending_billing"><path d="M419,332.16 C419,344.15 419,366.86 419,384.03 " fill="none" id="Ipending-billing" style="stroke:#7A003C;stroke-width:1.0;"/></g><!--link Iloyalty to patrons--><g id="link_Iloyalty_patrons"><path d="M369,131.67 C369,144.39 369,170.49 369,191.37 " fill="none" id="Iloyalty-patrons" style="stroke:#7A003C;stroke-width:1.0;"/></g><!--link Ipatrons_mgmt to patrons--><g id="link_Ipatrons_mgmt_patrons"><path d="M274.47,222.97 C284.74,222.97 299.67,222.97 299.67,222.97 C299.67,222.97 309.45,222.97 318.62,222.97 " fill="none" id="Ipatrons_mgmt-patrons" style="stroke:#7A003C;stroke-width:1.0;"/></g><!--link ordering to Ibilling--><g id="link_ordering_Ibilling"><path d="M270.38,407.44 C279.55,407.44 289.33,407.44 289.33,407.44 C289.33,407.44 299.38,407.44 308.66,407.44 " fill="none" id="ordering-to-Ibilling" style="stroke:#7A003C;stroke-width:1.0;stroke-dasharray:7.0,7.0;"/><polygon fill="#7A003C" points="313.53,407.44,304.53,403.44,308.53,407.44,304.53,411.44,313.53,407.44" style="stroke:#7A003C;stroke-width:1.0;"/></g><!--link Ilist_impeding to ordering--><g id="link_Ilist_impeding_ordering"><path d="M125.47,407.44 C135.74,407.44 150.67,407.44 150.67,407.44 C150.67,407.44 160.45,407.44 169.62,407.44 " fill="none" id="Ilist_impeding-ordering" style="stroke:#7A003C;stroke-width:1.0;"/></g><!--link Iprocess_order to ordering--><g id="link_Iprocess_order_ordering"><path d="M219.1,331.86 C219.22,341.94 219.44,359.96 219.63,375.76 " fill="none" id="Iprocess_order-ordering" style="stroke:#7A003C;stroke-width:1.0;"/></g><!--reverse link Ipending to mosaic--><g id="link_Ipending_mosaic"><path d="M434.24,322.95 C444.32,322.95 455.67,322.95 455.67,322.95 C455.67,322.95 464.27,322.95 473.14,322.95 " fill="none" id="Ipending-backto-mosaic" style="stroke:#7A003C;stroke-width:1.0;stroke-dasharray:7.0,7.0;"/><polygon fill="#7A003C" points="429.25,322.95,438.25,326.95,434.25,322.95,438.25,318.95,429.25,322.95" style="stroke:#7A003C;stroke-width:1.0;"/></g><!--link S to web--><g id="link_S_web"><path d="M80.21,222.97 C82.95,222.97 84.67,222.97 84.67,222.97 C84.67,222.97 107.69,222.97 119.51,222.97 " fill="none" id="S-to-web" style="stroke:#7A003C;stroke-width:1.0;stroke-dasharray:7.0,7.0;"/><polygon fill="#7A003C" points="124.3,222.97,115.3,218.97,119.3,222.97,115.3,226.97,124.3,222.97" style="stroke:#7A003C;stroke-width:1.0;"/></g><!--link web to Ipatrons_mgmt--><g id="link_web_Ipatrons_mgmt"><path d="M210.92,222.97 C220.35,222.97 232.67,222.97 232.67,222.97 C232.67,222.97 241.64,222.97 250.13,222.97 " fill="none" id="web-to-Ipatrons_mgmt" style="stroke:#7A003C;stroke-width:1.0;stroke-dasharray:7.0,7.0;"/><polygon fill="#7A003C" points="254.82,222.97,245.82,218.97,249.82,222.97,245.82,226.97,254.82,222.97" style="stroke:#7A003C;stroke-width:1.0;"/></g><!--reverse link Imenu_mgmt to web--><g id="link_Imenu_mgmt_web"><path d="M168,137.4 C168,151.23 168,173.26 168,191.37 " fill="none" id="Imenu_mgmt-backto-web" style="stroke:#7A003C;stroke-width:1.0;stroke-dasharray:7.0,7.0;"/><polygon fill="#7A003C" points="168,132.67,164,141.67,168,137.67,172,141.67,168,132.67" style="stroke:#7A003C;stroke-width:1.0;"/></g><!--link web to Iprocess_order--><g id="link_web_Iprocess_order"><path d="M184,254.7 C193.59,273.13 205.28,295.59 212.43,309.32 " fill="none" id="web-to-Iprocess_order" style="stroke:#7A003C;stroke-width:1.0;stroke-dasharray:7.0,7.0;"/><polygon fill="#7A003C" points="215.02,313.3,214.4217,303.4693,212.7155,308.8627,207.3221,307.1565,215.02,313.3" style="stroke:#7A003C;stroke-width:1.0;"/></g><!--link web to Ilist_impeding--><g id="link_web_Ilist_impeding"><path d="M159.18,254.92 C147.76,294.98 128.35,363.11 120.01,392.39 " fill="none" id="web-to-Ilist_impeding" style="stroke:#7A003C;stroke-width:1.0;stroke-dasharray:7.0,7.0;"/><polygon fill="#7A003C" points="118.4,397.02,124.7186,389.4652,119.7736,392.2124,117.0264,387.2674,118.4,397.02" style="stroke:#7A003C;stroke-width:1.0;"/></g><!--SRC=[dPF1Qjmm48RlUegfBcq3wroQsxAGbXmMidJf7d8nB5fRMSJA8s79QVVj8uqiMsv22XKOfD4_Cvz-oPyKDdfe9LJLxT7vgvQtTkXqHLFcBWgjw4K7lS2BanRWhWYYQMKCVhjZx3FSl3_Y3cpHonw5XX-cimObUWSt7-Im9kkWapX06C81tuLvZVlUlAXMzfnz-GhyqPZBO3ca4LJRc77K52R5Jg0uonfZDfyLtRdph1J3YfenwhXQbRA2vwIqLdZEID_JCh74nSy-eXKuOm89zXBRCAznYoz6DT8b7fl2B6i3ISxAUn4enqeSAtnlq17BdkRXe7JWoP-hqFxAPo2T8YnFOkcnpCAlL2uZfiNeMhc2ERlWCj66o1t1o9E_kC8jXlEx6aV3g4cA7IavqIldjvsLqOAaqI5oL6E8JMsgpUpqKXFuieejEyI3Jrl_UC4FV_x_1HidL3E_2BwZ08VrMevLDvlvejVLcC7UCX5AerKiAwnzXw1ip9_agSRxjbD8tlsM9tRVUDC3_oMT5qFugtsD1o-UdqbmOEmGdOp2y96foukVVec0MSqw4YukRmelx-iL]--></g></svg>