<?xml version="1.0" encoding="us-ascii" standalone="no"?><svg xmlns="http://www.w3.org/2000/svg" xmlns:xlink="http://www.w3.org/1999/xlink" contentStyleType="text/css" height="454px" preserveAspectRatio="none" style="width:691px;height:454px;background:#FFFFFF;" version="1.1" viewBox="0 0 691 454" width="691px" zoomAndPan="magnify"><defs/><g><!--entity mosaic--><g id="elem_mosaic"><rect fill="#FEECCD" height="62.9766" rx="5" ry="5" style="stroke:#7A003C;stroke-width:1.0;" width="111" x="506" y="7"/><rect fill="#FEECCD" height="10" style="stroke:#7A003C;stroke-width:1.0;" width="15" x="597" y="12"/><rect fill="#FEECCD" height="2" style="stroke:#7A003C;stroke-width:1.0;" width="4" x="595" y="14"/><rect fill="#FEECCD" height="2" style="stroke:#7A003C;stroke-width:1.0;" width="4" x="595" y="18"/><text fill="#000000" font-family="sans-serif" font-size="14" font-style="italic" lengthAdjust="spacing" textLength="71" x="521" y="40.5352">&#171;external&#187;</text><text fill="#000000" font-family="sans-serif" font-size="14" lengthAdjust="spacing" textLength="47" x="533" y="57.0234">Mosaic</text></g><!--entity Imeal_plan--><g id="elem_Imeal_plan"><ellipse cx="561.5" cy="122.98" fill="#7A003C" rx="8" ry="8" style="stroke:#7A003C;stroke-width:1.0;"/><text fill="#000000" font-family="sans-serif" font-size="14" lengthAdjust="spacing" textLength="61" x="531" y="153.5152">MealPlan</text><text fill="#000000" font-family="sans-serif" font-size="14" lengthAdjust="spacing" textLength="58" x="531" y="170.0034">Payment</text></g><!--entity payment--><g id="elem_payment"><rect fill="#FEECCD" height="79.4648" rx="5" ry="5" style="stroke:#7A003C;stroke-width:1.0;" width="111" x="506" y="359.47"/><rect fill="#FEECCD" height="10" style="stroke:#7A003C;stroke-width:1.0;" width="15" x="597" y="364.47"/><rect fill="#FEECCD" height="2" style="stroke:#7A003C;stroke-width:1.0;" width="4" x="595" y="366.47"/><rect fill="#FEECCD" height="2" style="stroke:#7A003C;stroke-width:1.0;" width="4" x="595" y="370.47"/><text fill="#000000" font-family="sans-serif" font-size="14" font-style="italic" lengthAdjust="spacing" textLength="71" x="521" y="393.0052">&#171;external&#187;</text><text fill="#000000" font-family="sans-serif" font-size="14" lengthAdjust="spacing" textLength="58" x="527.5" y="409.4934">Payment</text><text fill="#000000" font-family="sans-serif" font-size="14" lengthAdjust="spacing" textLength="57" x="527.5" y="425.9817">Gateway</text></g><!--entity Iprocess_payment--><g id="elem_Iprocess_payment"><ellipse cx="561.5" cy="306.47" fill="#7A003C" rx="8" ry="8" style="stroke:#7A003C;stroke-width:1.0;"/><text fill="#000000" font-family="sans-serif" font-size="14" lengthAdjust="spacing" textLength="52" x="532.5" y="337.0052">Process</text><text fill="#000000" font-family="sans-serif" font-size="14" lengthAdjust="spacing" textLength="58" x="532.5" y="353.4934">Payment</text></g><!--entity menu--><g id="elem_menu"><rect fill="#FEECCD" height="62.9766" rx="5" ry="5" style="stroke:#7A003C;stroke-width:1.0;" width="97" x="102" y="7"/><rect fill="#FEECCD" height="10" style="stroke:#7A003C;stroke-width:1.0;" width="15" x="179" y="12"/><rect fill="#FEECCD" height="2" style="stroke:#7A003C;stroke-width:1.0;" width="4" x="177" y="14"/><rect fill="#FEECCD" height="2" style="stroke:#7A003C;stroke-width:1.0;" width="4" x="177" y="18"/><text fill="#000000" font-family="sans-serif" font-size="14" lengthAdjust="spacing" textLength="38" x="117" y="40.5352">Menu</text><text fill="#000000" font-family="sans-serif" font-size="14" lengthAdjust="spacing" textLength="57" x="117" y="57.0234">Provider</text></g><!--entity Imenu_lookup--><g id="elem_Imenu_lookup"><ellipse cx="150.5" cy="122.98" fill="#7A003C" rx="8" ry="8" style="stroke:#7A003C;stroke-width:1.0;"/><text fill="#000000" font-family="sans-serif" font-size="14" lengthAdjust="spacing" textLength="51" x="125" y="153.5152">Lookup</text></g><!--entity Imenu_mgmt--><g id="elem_Imenu_mgmt"><ellipse cx="48.5" cy="38.49" fill="#7A003C" rx="8" ry="8" style="stroke:#7A003C;stroke-width:1.0;"/><text fill="#000000" font-family="sans-serif" font-size="14" lengthAdjust="spacing" textLength="54" x="21.5" y="69.0252">Manage</text><text fill="#000000" font-family="sans-serif" font-size="14" lengthAdjust="spacing" textLength="38" x="21.5" y="85.5134">Menu</text></g><!--entity billing--><g id="elem_billing"><rect fill="#FEECCD" height="46.4883" rx="5" ry="5" style="stroke:#7A003C;stroke-width:1.0;" width="82" x="520.5" y="191.48"/><rect fill="#FEECCD" height="10" style="stroke:#7A003C;stroke-width:1.0;" width="15" x="582.5" y="196.48"/><rect fill="#FEECCD" height="2" style="stroke:#7A003C;stroke-width:1.0;" width="4" x="580.5" y="198.48"/><rect fill="#FEECCD" height="2" style="stroke:#7A003C;stroke-width:1.0;" width="4" x="580.5" y="202.48"/><text fill="#000000" font-family="sans-serif" font-size="14" lengthAdjust="spacing" textLength="42" x="535.5" y="225.0152">Billing</text></g><!--entity Ibilling--><g id="elem_Ibilling"><ellipse cx="466.5" cy="214.72" fill="#7A003C" rx="8" ry="8" style="stroke:#7A003C;stroke-width:1.0;"/><text fill="#000000" font-family="sans-serif" font-size="14" lengthAdjust="spacing" textLength="60" x="436.5" y="245.2552">BillOrder</text></g><!--entity Ipending--><g id="elem_Ipending"><ellipse cx="656.5" cy="214.72" fill="#7A003C" rx="8" ry="8" style="stroke:#7A003C;stroke-width:1.0;"/><text fill="#000000" font-family="sans-serif" font-size="14" lengthAdjust="spacing" textLength="56" x="628.5" y="245.2552">Pending</text><text fill="#000000" font-family="sans-serif" font-size="14" lengthAdjust="spacing" textLength="55" x="628.5" y="261.7434">Invoices</text></g><!--entity patrons--><g id="elem_patrons"><rect fill="#FEECCD" height="62.9766" rx="5" ry="5" style="stroke:#7A003C;stroke-width:1.0;" width="100" x="100.5" y="367.71"/><rect fill="#FEECCD" height="10" style="stroke:#7A003C;stroke-width:1.0;" width="15" x="180.5" y="372.71"/><rect fill="#FEECCD" height="2" style="stroke:#7A003C;stroke-width:1.0;" width="4" x="178.5" y="374.71"/><rect fill="#FEECCD" height="2" style="stroke:#7A003C;stroke-width:1.0;" width="4" x="178.5" y="378.71"/><text fill="#000000" font-family="sans-serif" font-size="14" lengthAdjust="spacing" textLength="45" x="115.5" y="401.2452">Patron</text><text fill="#000000" font-family="sans-serif" font-size="14" lengthAdjust="spacing" textLength="60" x="115.5" y="417.7334">Manager</text></g><!--entity Iloyalty--><g id="elem_Iloyalty"><ellipse cx="150.5" cy="306.47" fill="#7A003C" rx="8" ry="8" style="stroke:#7A003C;stroke-width:1.0;"/><text fill="#000000" font-family="sans-serif" font-size="14" lengthAdjust="spacing" textLength="47" x="127" y="337.0052">Loyalty</text></g><!--entity Ipatrons_mgmt--><g id="elem_Ipatrons_mgmt"><ellipse cx="46.5" cy="399.2" fill="#7A003C" rx="8" ry="8" style="stroke:#7A003C;stroke-width:1.0;"/><text fill="#000000" font-family="sans-serif" font-size="14" lengthAdjust="spacing" textLength="54" x="19.5" y="429.7352">Manage</text><text fill="#000000" font-family="sans-serif" font-size="14" lengthAdjust="spacing" textLength="52" x="19.5" y="446.2234">Patrons</text></g><!--entity ordering--><g id="elem_ordering"><rect fill="#FEECCD" height="62.9766" rx="5" ry="5" style="stroke:#7A003C;stroke-width:1.0;" width="100" x="312.5" y="183.23"/><rect fill="#FEECCD" height="10" style="stroke:#7A003C;stroke-width:1.0;" width="15" x="392.5" y="188.23"/><rect fill="#FEECCD" height="2" style="stroke:#7A003C;stroke-width:1.0;" width="4" x="390.5" y="190.23"/><rect fill="#FEECCD" height="2" style="stroke:#7A003C;stroke-width:1.0;" width="4" x="390.5" y="194.23"/><text fill="#000000" font-family="sans-serif" font-size="14" lengthAdjust="spacing" textLength="40" x="327.5" y="216.7652">Order</text><text fill="#000000" font-family="sans-serif" font-size="14" lengthAdjust="spacing" textLength="60" x="327.5" y="233.2534">Manager</text></g><!--entity Iprocess_order--><g id="elem_Iprocess_order"><ellipse cx="258.5" cy="214.72" fill="#7A003C" rx="8" ry="8" style="stroke:#7A003C;stroke-width:1.0;"/><text fill="#000000" font-family="sans-serif" font-size="14" lengthAdjust="spacing" textLength="52" x="232.5" y="245.2552">Process</text><text fill="#000000" font-family="sans-serif" font-size="14" lengthAdjust="spacing" textLength="40" x="232.5" y="261.7434">Order</text></g><!--entity Ilist_impeding--><g id="elem_Ilist_impeding"><ellipse cx="362.5" cy="122.98" fill="#7A003C" rx="8" ry="8" style="stroke:#7A003C;stroke-width:1.0;"/><text fill="#000000" font-family="sans-serif" font-size="14" lengthAdjust="spacing" textLength="88" x="318.5" y="153.5152">ListImpeding</text></g><!--entity mobile--><g id="elem_mobile"><rect fill="#FEECCD" height="46.4883" rx="5" ry="5" style="stroke:#7A003C;stroke-width:1.0;" width="108" x="96.5" y="191.48"/><rect fill="#FEECCD" height="10" style="stroke:#7A003C;stroke-width:1.0;" width="15" x="184.5" y="196.48"/><rect fill="#FEECCD" height="2" style="stroke:#7A003C;stroke-width:1.0;" width="4" x="182.5" y="198.48"/><rect fill="#FEECCD" height="2" style="stroke:#7A003C;stroke-width:1.0;" width="4" x="182.5" y="202.48"/><text fill="#000000" font-family="sans-serif" font-size="14" lengthAdjust="spacing" textLength="68" x="111.5" y="225.0152">ClientApp</text></g><!--entity P--><g id="elem_P"><ellipse cx="28.5" cy="184.98" fill="#FEECCD" rx="8" ry="8" style="stroke:#7A003C;stroke-width:1.0;"/><path d="M28.5,192.98 L28.5,219.98 M15.5,200.98 L41.5,200.98 M28.5,219.98 L15.5,234.98 M28.5,219.98 L41.5,234.98 " fill="none" style="stroke:#7A003C;stroke-width:1.0;"/><text fill="#7A003C" font-family="sans-serif" font-size="14" lengthAdjust="spacing" textLength="45" x="6" y="250.5152">Patron</text></g><!--link mosaic to Imeal_plan--><g id="link_mosaic_Imeal_plan"><path d="M561.5,70.2 C561.5,85.96 561.5,103.92 561.5,114 " fill="none" id="mosaic-Imeal_plan" style="stroke:#7A003C;stroke-width:1.0;"/></g><!--link Iprocess_payment to payment--><g id="link_Iprocess_payment_payment"><path d="M561.5,315.2 C561.5,325.06 561.5,342.81 561.5,359.37 " fill="none" id="Iprocess_payment-payment" style="stroke:#7A003C;stroke-width:1.0;"/></g><!--link menu to Imenu_lookup--><g id="link_menu_Imenu_lookup"><path d="M150.5,70.2 C150.5,85.96 150.5,103.92 150.5,114 " fill="none" id="menu-Imenu_lookup" style="stroke:#7A003C;stroke-width:1.0;"/></g><!--link Imenu_mgmt to menu--><g id="link_Imenu_mgmt_menu"><path d="M57.79,38.49 C67.86,38.49 82.5,38.49 82.5,38.49 C82.5,38.49 92.67,38.49 101.88,38.49 " fill="none" id="Imenu_mgmt-menu" style="stroke:#7A003C;stroke-width:1.0;"/></g><!--link billing to Iprocess_payment--><g id="link_billing_Iprocess_payment"><path d="M561.5,238.37 C561.5,255.12 561.5,277.4 561.5,291.59 " fill="none" id="billing-to-Iprocess_payment" style="stroke:#7A003C;stroke-width:1.0;stroke-dasharray:7.0,7.0;"/><polygon fill="#7A003C" points="561.5,296.49,565.5,287.49,561.5,291.49,557.5,287.49,561.5,296.49" style="stroke:#7A003C;stroke-width:1.0;"/></g><!--reverse link Imeal_plan to billing--><g id="link_Imeal_plan_billing"><path d="M561.5,137.84 C561.5,152.02 561.5,174.28 561.5,191.03 " fill="none" id="Imeal_plan-backto-billing" style="stroke:#7A003C;stroke-width:1.0;stroke-dasharray:7.0,7.0;"/><polygon fill="#7A003C" points="561.5,132.94,557.5,141.94,561.5,137.94,565.5,141.94,561.5,132.94" style="stroke:#7A003C;stroke-width:1.0;"/></g><!--link Ibilling to billing--><g id="link_Ibilling_billing"><path d="M475.83,214.72 C485.17,214.72 498.17,214.72 498.17,214.72 C498.17,214.72 510.85,214.72 520.16,214.72 " fill="none" id="Ibilling-billing" style="stroke:#7A003C;stroke-width:1.0;"/></g><!--link billing to Ipending--><g id="link_billing_Ipending"><path d="M602.84,214.72 C612.15,214.72 624.83,214.72 624.83,214.72 C624.83,214.72 637.83,214.72 647.17,214.72 " fill="none" id="billing-Ipending" style="stroke:#7A003C;stroke-width:1.0;"/></g><!--link Iloyalty to patrons--><g id="link_Iloyalty_patrons"><path d="M150.5,315.2 C150.5,326.69 150.5,348.89 150.5,367.44 " fill="none" id="Iloyalty-patrons" style="stroke:#7A003C;stroke-width:1.0;"/></g><!--link Ipatrons_mgmt to patrons--><g id="link_Ipatrons_mgmt_patrons"><path d="M55.97,399.2 C66.24,399.2 81.17,399.2 81.17,399.2 C81.17,399.2 90.95,399.2 100.12,399.2 " fill="none" id="Ipatrons_mgmt-patrons" style="stroke:#7A003C;stroke-width:1.0;"/></g><!--link ordering to Ibilling--><g id="link_ordering_Ibilling"><path d="M412.88,214.72 C422.05,214.72 431.83,214.72 431.83,214.72 C431.83,214.72 441.88,214.72 451.16,214.72 " fill="none" id="ordering-to-Ibilling" style="stroke:#7A003C;stroke-width:1.0;stroke-dasharray:7.0,7.0;"/><polygon fill="#7A003C" points="456.03,214.72,447.03,210.72,451.03,214.72,447.03,218.72,456.03,214.72" style="stroke:#7A003C;stroke-width:1.0;"/></g><!--link Iprocess_order to ordering--><g id="link_Iprocess_order_ordering"><path d="M267.97,214.72 C278.24,214.72 293.17,214.72 293.17,214.72 C293.17,214.72 302.95,214.72 312.12,214.72 " fill="none" id="Iprocess_order-ordering" style="stroke:#7A003C;stroke-width:1.0;"/></g><!--link Ilist_impeding to ordering--><g id="link_Ilist_impeding_ordering"><path d="M362.5,131.94 C362.5,143.35 362.5,164.98 362.5,183.13 " fill="none" id="Ilist_impeding-ordering" style="stroke:#7A003C;stroke-width:1.0;"/></g><!--reverse link Imenu_lookup to mobile--><g id="link_Imenu_lookup_mobile"><path d="M150.5,137.84 C150.5,152.02 150.5,174.28 150.5,191.03 " fill="none" id="Imenu_lookup-backto-mobile" style="stroke:#7A003C;stroke-width:1.0;stroke-dasharray:7.0,7.0;"/><polygon fill="#7A003C" points="150.5,132.94,146.5,141.94,150.5,137.94,154.5,141.94,150.5,132.94" style="stroke:#7A003C;stroke-width:1.0;"/></g><!--link mobile to Iloyalty--><g id="link_mobile_Iloyalty"><path d="M150.5,238.37 C150.5,255.12 150.5,277.4 150.5,291.59 " fill="none" id="mobile-to-Iloyalty" style="stroke:#7A003C;stroke-width:1.0;stroke-dasharray:7.0,7.0;"/><polygon fill="#7A003C" points="150.5,296.49,154.5,287.49,150.5,291.49,146.5,287.49,150.5,296.49" style="stroke:#7A003C;stroke-width:1.0;"/></g><!--link mobile to Iprocess_order--><g id="link_mobile_Iprocess_order"><path d="M204.92,214.72 C213.78,214.72 222.5,214.72 222.5,214.72 C222.5,214.72 233.39,214.72 243.19,214.72 " fill="none" id="mobile-to-Iprocess_order" style="stroke:#7A003C;stroke-width:1.0;stroke-dasharray:7.0,7.0;"/><polygon fill="#7A003C" points="248.04,214.72,239.04,210.72,243.04,214.72,239.04,218.72,248.04,214.72" style="stroke:#7A003C;stroke-width:1.0;"/></g><!--link P to mobile--><g id="link_P_mobile"><path d="M51.21,214.72 C60.53,214.72 69.17,214.72 69.17,214.72 C69.17,214.72 79.72,214.72 90.07,214.72 " fill="none" id="P-to-mobile" style="stroke:#7A003C;stroke-width:1.0;stroke-dasharray:7.0,7.0;"/><polygon fill="#7A003C" points="95.07,214.72,86.07,210.72,90.07,214.72,86.07,218.72,95.07,214.72" style="stroke:#7A003C;stroke-width:1.0;"/></g><!--SRC=[dLHDQzmm4BtFhr1yQH9OvvBSbeKsb618gN_0Wb6yOX4hZOIaJUj_NttRtYm9rAVHqyoRDq-3RpYEudnWf6qV1kicmHxqMOesXc1F73KrL193yMIP9kHf0Q8wi00-FW5y8_VNlt13Vlvrp20Lv5b9hP2Xi-J-aneOInwHob8-alHHIvfV4MZ8Tiiowsu7jtV-Wb7H2ufxxEaaVMqJyZlfuK5x73BLPhC45wrqAgkTCiqUNwXZV-XqfMTlrCYilMYf4pfaGhW4WeGImbVUTVZ_tZ4yLzjyx6KQzSuFp3HH_QjIfxDkPdExK36822TFAT8ZssEeRkOCUPGE8dioSowQxyaczb_gUUD2S3mMIJ_ICMa9XzycI5l8oGN9QeO77- -nmtV5lPtPwmH3uMxRtPK7gEzDjcrRT43Xzr8BD2ELURqYpYYqUJr2xBs97bLB9ohSrCmpY8H02TBZHvgLnOckJ9KEoUZLYSpL2rqgE1Tq1s7HnWjTTL6pnyirZSLGAOA1rQ5LZkzTijAmtBfEQXPiIfJ28mFF4AoFOV1Q_d7huxAFWeTngDPNTdpzM_0IMHptETPyrxg1vIh6bqvfaBFZRfJtADZkqWYWerEcl6-SguS-96QsVm00]--></g></svg>