<?xml version="1.0" encoding="us-ascii" standalone="no"?><svg xmlns="http://www.w3.org/2000/svg" xmlns:xlink="http://www.w3.org/1999/xlink" contentStyleType="text/css" height="429px" preserveAspectRatio="none" style="width:504px;height:429px;background:#FFFFFF;" version="1.1" viewBox="0 0 504 429" width="504px" zoomAndPan="magnify"><defs/><g><!--entity menu--><g id="elem_menu"><rect fill="#FEECCD" height="62.9766" rx="5" ry="5" style="stroke:#7A003C;stroke-width:1.0;" width="97" x="85" y="7"/><rect fill="#FEECCD" height="10" style="stroke:#7A003C;stroke-width:1.0;" width="15" x="162" y="12"/><rect fill="#FEECCD" height="2" style="stroke:#7A003C;stroke-width:1.0;" width="4" x="160" y="14"/><rect fill="#FEECCD" height="2" style="stroke:#7A003C;stroke-width:1.0;" width="4" x="160" y="18"/><text fill="#000000" font-family="sans-serif" font-size="14" lengthAdjust="spacing" textLength="38" x="100" y="40.5352">Menu</text><text fill="#000000" font-family="sans-serif" font-size="14" lengthAdjust="spacing" textLength="57" x="100" y="57.0234">Provider</text></g><!--entity Imenu_lookup--><g id="elem_Imenu_lookup"><ellipse cx="31.5" cy="38.49" fill="#7A003C" rx="8" ry="8" style="stroke:#7A003C;stroke-width:1.0;"/><text fill="#000000" font-family="sans-serif" font-size="14" lengthAdjust="spacing" textLength="51" x="6" y="69.0252">Lookup</text></g><!--entity Imenu_mgmt--><g id="elem_Imenu_mgmt"><ellipse cx="133.5" cy="122.98" fill="#7A003C" rx="8" ry="8" style="stroke:#7A003C;stroke-width:1.0;"/><text fill="#000000" font-family="sans-serif" font-size="14" lengthAdjust="spacing" textLength="54" x="106.5" y="153.5152">Manage</text><text fill="#000000" font-family="sans-serif" font-size="14" lengthAdjust="spacing" textLength="38" x="106.5" y="170.0034">Menu</text></g><!--entity billing--><g id="elem_billing"><rect fill="#FEECCD" height="46.4883" rx="5" ry="5" style="stroke:#7A003C;stroke-width:1.0;" width="82" x="291.5" y="367.71"/><rect fill="#FEECCD" height="10" style="stroke:#7A003C;stroke-width:1.0;" width="15" x="353.5" y="372.71"/><rect fill="#FEECCD" height="2" style="stroke:#7A003C;stroke-width:1.0;" width="4" x="351.5" y="374.71"/><rect fill="#FEECCD" height="2" style="stroke:#7A003C;stroke-width:1.0;" width="4" x="351.5" y="378.71"/><text fill="#000000" font-family="sans-serif" font-size="14" lengthAdjust="spacing" textLength="42" x="306.5" y="401.2452">Billing</text></g><!--entity Ibilling--><g id="elem_Ibilling"><ellipse cx="237.5" cy="390.95" fill="#7A003C" rx="8" ry="8" style="stroke:#7A003C;stroke-width:1.0;"/><text fill="#000000" font-family="sans-serif" font-size="14" lengthAdjust="spacing" textLength="60" x="207.5" y="421.4852">BillOrder</text></g><!--entity Ipending--><g id="elem_Ipending"><ellipse cx="332.5" cy="306.46" fill="#7A003C" rx="8" ry="8" style="stroke:#7A003C;stroke-width:1.0;"/><text fill="#000000" font-family="sans-serif" font-size="14" lengthAdjust="spacing" textLength="56" x="304.5" y="336.9952">Pending</text><text fill="#000000" font-family="sans-serif" font-size="14" lengthAdjust="spacing" textLength="55" x="304.5" y="353.4834">Invoices</text></g><!--entity patrons--><g id="elem_patrons"><rect fill="#FEECCD" height="62.9766" rx="5" ry="5" style="stroke:#7A003C;stroke-width:1.0;" width="100" x="284.5" y="183.23"/><rect fill="#FEECCD" height="10" style="stroke:#7A003C;stroke-width:1.0;" width="15" x="364.5" y="188.23"/><rect fill="#FEECCD" height="2" style="stroke:#7A003C;stroke-width:1.0;" width="4" x="362.5" y="190.23"/><rect fill="#FEECCD" height="2" style="stroke:#7A003C;stroke-width:1.0;" width="4" x="362.5" y="194.23"/><text fill="#000000" font-family="sans-serif" font-size="14" lengthAdjust="spacing" textLength="45" x="299.5" y="216.7652">Patron</text><text fill="#000000" font-family="sans-serif" font-size="14" lengthAdjust="spacing" textLength="60" x="299.5" y="233.2534">Manager</text></g><!--entity Iloyalty--><g id="elem_Iloyalty"><ellipse cx="334.5" cy="122.98" fill="#7A003C" rx="8" ry="8" style="stroke:#7A003C;stroke-width:1.0;"/><text fill="#000000" font-family="sans-serif" font-size="14" lengthAdjust="spacing" textLength="47" x="311" y="153.5152">Loyalty</text></g><!--entity Ipatrons_mgmt--><g id="elem_Ipatrons_mgmt"><ellipse cx="230.5" cy="214.72" fill="#7A003C" rx="8" ry="8" style="stroke:#7A003C;stroke-width:1.0;"/><text fill="#000000" font-family="sans-serif" font-size="14" lengthAdjust="spacing" textLength="54" x="203.5" y="245.2552">Manage</text><text fill="#000000" font-family="sans-serif" font-size="14" lengthAdjust="spacing" textLength="52" x="203.5" y="261.7434">Patrons</text></g><!--entity ordering--><g id="elem_ordering"><rect fill="#FEECCD" height="62.9766" rx="5" ry="5" style="stroke:#7A003C;stroke-width:1.0;" width="100" x="83.5" y="359.46"/><rect fill="#FEECCD" height="10" style="stroke:#7A003C;stroke-width:1.0;" width="15" x="163.5" y="364.46"/><rect fill="#FEECCD" height="2" style="stroke:#7A003C;stroke-width:1.0;" width="4" x="161.5" y="366.46"/><rect fill="#FEECCD" height="2" style="stroke:#7A003C;stroke-width:1.0;" width="4" x="161.5" y="370.46"/><text fill="#000000" font-family="sans-serif" font-size="14" lengthAdjust="spacing" textLength="40" x="98.5" y="392.9952">Order</text><text fill="#000000" font-family="sans-serif" font-size="14" lengthAdjust="spacing" textLength="60" x="98.5" y="409.4834">Manager</text></g><!--entity Iprocess_order--><g id="elem_Iprocess_order"><ellipse cx="133.5" cy="306.46" fill="#7A003C" rx="8" ry="8" style="stroke:#7A003C;stroke-width:1.0;"/><text fill="#000000" font-family="sans-serif" font-size="14" lengthAdjust="spacing" textLength="52" x="107.5" y="336.9952">Process</text><text fill="#000000" font-family="sans-serif" font-size="14" lengthAdjust="spacing" textLength="40" x="107.5" y="353.4834">Order</text></g><!--entity mosaic--><g id="elem_mosaic"><rect fill="#FEECCD" height="62.9766" rx="5" ry="5" style="stroke:#7A003C;stroke-width:1.0;" width="111" x="387" y="274.98"/><rect fill="#FEECCD" height="10" style="stroke:#7A003C;stroke-width:1.0;" width="15" x="478" y="279.98"/><rect fill="#FEECCD" height="2" style="stroke:#7A003C;stroke-width:1.0;" width="4" x="476" y="281.98"/><rect fill="#FEECCD" height="2" style="stroke:#7A003C;stroke-width:1.0;" width="4" x="476" y="285.98"/><text fill="#000000" font-family="sans-serif" font-size="14" font-style="italic" lengthAdjust="spacing" textLength="71" x="402" y="308.5152">&#171;external&#187;</text><text fill="#000000" font-family="sans-serif" font-size="14" lengthAdjust="spacing" textLength="47" x="414" y="325.0034">Mosaic</text></g><!--entity web--><g id="elem_web"><rect fill="#FEECCD" height="62.9766" rx="5" ry="5" style="stroke:#7A003C;stroke-width:1.0;" width="85" x="91" y="183.23"/><rect fill="#FEECCD" height="10" style="stroke:#7A003C;stroke-width:1.0;" width="15" x="156" y="188.23"/><rect fill="#FEECCD" height="2" style="stroke:#7A003C;stroke-width:1.0;" width="4" x="154" y="190.23"/><rect fill="#FEECCD" height="2" style="stroke:#7A003C;stroke-width:1.0;" width="4" x="154" y="194.23"/><text fill="#000000" font-family="sans-serif" font-size="14" lengthAdjust="spacing" textLength="29" x="106" y="216.7652">Web</text><text fill="#000000" font-family="sans-serif" font-size="14" lengthAdjust="spacing" textLength="45" x="106" y="233.2534">Admin</text></g><!--entity S--><g id="elem_S"><ellipse cx="30.5" cy="184.98" fill="#FEECCD" rx="8" ry="8" style="stroke:#7A003C;stroke-width:1.0;"/><path d="M30.5,192.98 L30.5,219.98 M17.5,200.98 L43.5,200.98 M30.5,219.98 L17.5,234.98 M30.5,219.98 L43.5,234.98 " fill="none" style="stroke:#7A003C;stroke-width:1.0;"/><text fill="#7A003C" font-family="sans-serif" font-size="14" lengthAdjust="spacing" textLength="31" x="15" y="250.5152">Staff</text></g><!--link Imenu_lookup to menu--><g id="link_Imenu_lookup_menu"><path d="M40.79,38.49 C50.86,38.49 65.5,38.49 65.5,38.49 C65.5,38.49 75.67,38.49 84.88,38.49 " fill="none" id="Imenu_lookup-menu" style="stroke:#7A003C;stroke-width:1.0;"/></g><!--link menu to Imenu_mgmt--><g id="link_menu_Imenu_mgmt"><path d="M133.5,70.2 C133.5,85.96 133.5,103.91 133.5,114 " fill="none" id="menu-Imenu_mgmt" style="stroke:#7A003C;stroke-width:1.0;"/></g><!--link Ibilling to billing--><g id="link_Ibilling_billing"><path d="M246.83,390.95 C256.17,390.95 269.17,390.95 269.17,390.95 C269.17,390.95 281.85,390.95 291.16,390.95 " fill="none" id="Ibilling-billing" style="stroke:#7A003C;stroke-width:1.0;"/></g><!--link Ipending to billing--><g id="link_Ipending_billing"><path d="M332.5,315.67 C332.5,327.66 332.5,350.37 332.5,367.54 " fill="none" id="Ipending-billing" style="stroke:#7A003C;stroke-width:1.0;"/></g><!--link Iloyalty to patrons--><g id="link_Iloyalty_patrons"><path d="M334.5,131.94 C334.5,143.35 334.5,164.98 334.5,183.13 " fill="none" id="Iloyalty-patrons" style="stroke:#7A003C;stroke-width:1.0;"/></g><!--link Ipatrons_mgmt to patrons--><g id="link_Ipatrons_mgmt_patrons"><path d="M239.97,214.72 C250.24,214.72 265.17,214.72 265.17,214.72 C265.17,214.72 274.95,214.72 284.12,214.72 " fill="none" id="Ipatrons_mgmt-patrons" style="stroke:#7A003C;stroke-width:1.0;"/></g><!--link ordering to Ibilling--><g id="link_ordering_Ibilling"><path d="M183.88,390.95 C193.05,390.95 202.83,390.95 202.83,390.95 C202.83,390.95 212.88,390.95 222.16,390.95 " fill="none" id="ordering-to-Ibilling" style="stroke:#7A003C;stroke-width:1.0;stroke-dasharray:7.0,7.0;"/><polygon fill="#7A003C" points="227.03,390.95,218.03,386.95,222.03,390.95,218.03,394.95,227.03,390.95" style="stroke:#7A003C;stroke-width:1.0;"/></g><!--link Iprocess_order to ordering--><g id="link_Iprocess_order_ordering"><path d="M133.5,315.37 C133.5,325.45 133.5,343.47 133.5,359.27 " fill="none" id="Iprocess_order-ordering" style="stroke:#7A003C;stroke-width:1.0;"/></g><!--reverse link Ipending to mosaic--><g id="link_Ipending_mosaic"><path d="M347.74,306.46 C357.82,306.46 369.17,306.46 369.17,306.46 C369.17,306.46 377.77,306.46 386.64,306.46 " fill="none" id="Ipending-backto-mosaic" style="stroke:#7A003C;stroke-width:1.0;stroke-dasharray:7.0,7.0;"/><polygon fill="#7A003C" points="342.75,306.46,351.75,310.46,347.75,306.46,351.75,302.46,342.75,306.46" style="stroke:#7A003C;stroke-width:1.0;"/></g><!--link S to web--><g id="link_S_web"><path d="M46.46,214.72 C55.43,214.72 64.83,214.72 64.83,214.72 C64.83,214.72 75.26,214.72 84.62,214.72 " fill="none" id="S-to-web" style="stroke:#7A003C;stroke-width:1.0;stroke-dasharray:7.0,7.0;"/><polygon fill="#7A003C" points="89.5,214.72,80.5,210.72,84.5,214.72,80.5,218.72,89.5,214.72" style="stroke:#7A003C;stroke-width:1.0;"/></g><!--link web to Ipatrons_mgmt--><g id="link_web_Ipatrons_mgmt"><path d="M176.42,214.72 C185.85,214.72 198.17,214.72 198.17,214.72 C198.17,214.72 207.14,214.72 215.63,214.72 " fill="none" id="web-to-Ipatrons_mgmt" style="stroke:#7A003C;stroke-width:1.0;stroke-dasharray:7.0,7.0;"/><polygon fill="#7A003C" points="220.32,214.72,211.32,210.72,215.32,214.72,211.32,218.72,220.32,214.72" style="stroke:#7A003C;stroke-width:1.0;"/></g><!--reverse link Imenu_mgmt to web--><g id="link_Imenu_mgmt_web"><path d="M133.5,137.65 C133.5,149.69 133.5,167.67 133.5,183.13 " fill="none" id="Imenu_mgmt-backto-web" style="stroke:#7A003C;stroke-width:1.0;stroke-dasharray:7.0,7.0;"/><polygon fill="#7A003C" points="133.5,132.94,129.5,141.94,133.5,137.94,137.5,141.94,133.5,132.94" style="stroke:#7A003C;stroke-width:1.0;"/></g><!--link web to Iprocess_order--><g id="link_web_Iprocess_order"><path d="M133.5,246.6 C133.5,262.01 133.5,279.85 133.5,291.82 " fill="none" id="web-to-Iprocess_order" style="stroke:#7A003C;stroke-width:1.0;stroke-dasharray:7.0,7.0;"/><polygon fill="#7A003C" points="133.5,296.81,137.5,287.81,133.5,291.81,129.5,287.81,133.5,296.81" style="stroke:#7A003C;stroke-width:1.0;"/></g><!--SRC=[dPDDQmCX48Rl_egfbtv0jfVs5W9fwI7Gq40ElIm4isk2n1rbtMsRVryTrwmfeOKA2-FuplZuwbufh7HVIoYA-uthZbhUsxxH1ONC7HHQqOe6Me479ot0OvP4KykGV7XaOLp3tUKHLc21dMnHQ7WsZJKeiNDmzqiDgv8E6eaz-24SyAMFIrorvaFLikNivXRugp67tdA8mwiMeMAZAKsAfK2nboM6QZugcdtJiLmC4zgCqOwJIIxBUBPAQuNxXFGKfv4bJDxQW9RX30KaM4ciVLpY0Z-CggIBF3QcMT9wabILrW9GokKuLdIjGKSiAuhzGUd09t-EGdT7FWBfc64f2As7DcT-nNO9CKu6r_8PZDKPbmas1Eu0HfxyuFAtwC_lIXmCeqrYRaF5xDIYc8qkdci2UfBzzGPVllx_1eqJgXhlb2yfmM4wbKFNsMoygcanL5puBmYbqYgq5TPU8CWtvkzoM-AyRXIIGvzoo-PLPrhWwqxiTfHSCxOE7eL5_v5TvzTrUiWUhHXr93op_1i0]--></g></svg>