<?xml version="1.0" encoding="us-ascii" standalone="no"?><svg xmlns="http://www.w3.org/2000/svg" xmlns:xlink="http://www.w3.org/1999/xlink" contentStyleType="text/css" height="429px" preserveAspectRatio="none" style="width:556px;height:429px;background:#FFFFFF;" version="1.1" viewBox="0 0 556 429" width="556px" zoomAndPan="magnify"><defs/><g><!--entity menu--><g id="elem_menu"><rect fill="#FEECCD" height="62.9766" rx="5" ry="5" style="stroke:#7A003C;stroke-width:1.0;" width="97" x="85" y="7"/><rect fill="#FEECCD" height="10" style="stroke:#7A003C;stroke-width:1.0;" width="15" x="162" y="12"/><rect fill="#FEECCD" height="2" style="stroke:#7A003C;stroke-width:1.0;" width="4" x="160" y="14"/><rect fill="#FEECCD" height="2" style="stroke:#7A003C;stroke-width:1.0;" width="4" x="160" y="18"/><text fill="#000000" font-family="sans-serif" font-size="14" lengthAdjust="spacing" textLength="38" x="100" y="40.5352">Menu</text><text fill="#000000" font-family="sans-serif" font-size="14" lengthAdjust="spacing" textLength="57" x="100" y="57.0234">Provider</text></g><!--entity Imenu_lookup--><g id="elem_Imenu_lookup"><ellipse cx="31.5" cy="38.49" fill="#7A003C" rx="8" ry="8" style="stroke:#7A003C;stroke-width:1.0;"/><text fill="#000000" font-family="sans-serif" font-size="14" lengthAdjust="spacing" textLength="51" x="6" y="69.0252">Lookup</text></g><!--entity Imenu_mgmt--><g id="elem_Imenu_mgmt"><ellipse cx="133.5" cy="122.98" fill="#7A003C" rx="8" ry="8" style="stroke:#7A003C;stroke-width:1.0;"/><text fill="#000000" font-family="sans-serif" font-size="14" lengthAdjust="spacing" textLength="54" x="106.5" y="153.5152">Manage</text><text fill="#000000" font-family="sans-serif" font-size="14" lengthAdjust="spacing" textLength="38" x="106.5" y="170.0034">Menu</text></g><!--entity billing--><g id="elem_billing"><rect fill="#FEECCD" height="46.4883" rx="5" ry="5" style="stroke:#7A003C;stroke-width:1.0;" width="82" x="343.5" y="367.71"/><rect fill="#FEECCD" height="10" style="stroke:#7A003C;stroke-width:1.0;" width="15" x="405.5" y="372.71"/><rect fill="#FEECCD" height="2" style="stroke:#7A003C;stroke-width:1.0;" width="4" x="403.5" y="374.71"/><rect fill="#FEECCD" height="2" style="stroke:#7A003C;stroke-width:1.0;" width="4" x="403.5" y="378.71"/><text fill="#000000" font-family="sans-serif" font-size="14" lengthAdjust="spacing" textLength="42" x="358.5" y="401.2452">Billing</text></g><!--entity Ibilling--><g id="elem_Ibilling"><ellipse cx="289.5" cy="390.95" fill="#7A003C" rx="8" ry="8" style="stroke:#7A003C;stroke-width:1.0;"/><text fill="#000000" font-family="sans-serif" font-size="14" lengthAdjust="spacing" textLength="60" x="259.5" y="421.4852">BillOrder</text></g><!--entity Ipending--><g id="elem_Ipending"><ellipse cx="384.5" cy="306.46" fill="#7A003C" rx="8" ry="8" style="stroke:#7A003C;stroke-width:1.0;"/><text fill="#000000" font-family="sans-serif" font-size="14" lengthAdjust="spacing" textLength="56" x="356.5" y="336.9952">Pending</text><text fill="#000000" font-family="sans-serif" font-size="14" lengthAdjust="spacing" textLength="55" x="356.5" y="353.4834">Invoices</text></g><!--entity patrons--><g id="elem_patrons"><rect fill="#FEECCD" height="62.9766" rx="5" ry="5" style="stroke:#7A003C;stroke-width:1.0;" width="100" x="284.5" y="183.23"/><rect fill="#FEECCD" height="10" style="stroke:#7A003C;stroke-width:1.0;" width="15" x="364.5" y="188.23"/><rect fill="#FEECCD" height="2" style="stroke:#7A003C;stroke-width:1.0;" width="4" x="362.5" y="190.23"/><rect fill="#FEECCD" height="2" style="stroke:#7A003C;stroke-width:1.0;" width="4" x="362.5" y="194.23"/><text fill="#000000" font-family="sans-serif" font-size="14" lengthAdjust="spacing" textLength="45" x="299.5" y="216.7652">Patron</text><text fill="#000000" font-family="sans-serif" font-size="14" lengthAdjust="spacing" textLength="60" x="299.5" y="233.2534">Manager</text></g><!--entity Iloyalty--><g id="elem_Iloyalty"><ellipse cx="334.5" cy="122.98" fill="#7A003C" rx="8" ry="8" style="stroke:#7A003C;stroke-width:1.0;"/><text fill="#000000" font-family="sans-serif" font-size="14" lengthAdjust="spacing" textLength="47" x="311" y="153.5152">Loyalty</text></g><!--entity Ipatrons_mgmt--><g id="elem_Ipatrons_mgmt"><ellipse cx="230.5" cy="214.72" fill="#7A003C" rx="8" ry="8" style="stroke:#7A003C;stroke-width:1.0;"/><text fill="#000000" font-family="sans-serif" font-size="14" lengthAdjust="spacing" textLength="54" x="203.5" y="245.2552">Manage</text><text fill="#000000" font-family="sans-serif" font-size="14" lengthAdjust="spacing" textLength="52" x="203.5" y="261.7434">Patrons</text></g><!--entity ordering--><g id="elem_ordering"><rect fill="#FEECCD" height="62.9766" rx="5" ry="5" style="stroke:#7A003C;stroke-width:1.0;" width="100" x="135.5" y="359.46"/><rect fill="#FEECCD" height="10" style="stroke:#7A003C;stroke-width:1.0;" width="15" x="215.5" y="364.46"/><rect fill="#FEECCD" height="2" style="stroke:#7A003C;stroke-width:1.0;" width="4" x="213.5" y="366.46"/><rect fill="#FEECCD" height="2" style="stroke:#7A003C;stroke-width:1.0;" width="4" x="213.5" y="370.46"/><text fill="#000000" font-family="sans-serif" font-size="14" lengthAdjust="spacing" textLength="40" x="150.5" y="392.9952">Order</text><text fill="#000000" font-family="sans-serif" font-size="14" lengthAdjust="spacing" textLength="60" x="150.5" y="409.4834">Manager</text></g><!--entity Iprocess_order--><g id="elem_Iprocess_order"><ellipse cx="184.5" cy="306.46" fill="#7A003C" rx="8" ry="8" style="stroke:#7A003C;stroke-width:1.0;"/><text fill="#000000" font-family="sans-serif" font-size="14" lengthAdjust="spacing" textLength="52" x="158.5" y="336.9952">Process</text><text fill="#000000" font-family="sans-serif" font-size="14" lengthAdjust="spacing" textLength="40" x="158.5" y="353.4834">Order</text></g><!--entity Ilist_impeding--><g id="elem_Ilist_impeding"><ellipse cx="81.5" cy="390.95" fill="#7A003C" rx="8" ry="8" style="stroke:#7A003C;stroke-width:1.0;"/><text fill="#000000" font-family="sans-serif" font-size="14" lengthAdjust="spacing" textLength="88" x="37.5" y="421.4852">ListImpeding</text></g><!--entity mosaic--><g id="elem_mosaic"><rect fill="#FEECCD" height="62.9766" rx="5" ry="5" style="stroke:#7A003C;stroke-width:1.0;" width="111" x="439" y="274.98"/><rect fill="#FEECCD" height="10" style="stroke:#7A003C;stroke-width:1.0;" width="15" x="530" y="279.98"/><rect fill="#FEECCD" height="2" style="stroke:#7A003C;stroke-width:1.0;" width="4" x="528" y="281.98"/><rect fill="#FEECCD" height="2" style="stroke:#7A003C;stroke-width:1.0;" width="4" x="528" y="285.98"/><text fill="#000000" font-family="sans-serif" font-size="14" font-style="italic" lengthAdjust="spacing" textLength="71" x="454" y="308.5152">&#171;external&#187;</text><text fill="#000000" font-family="sans-serif" font-size="14" lengthAdjust="spacing" textLength="47" x="466" y="325.0034">Mosaic</text></g><!--entity web--><g id="elem_web"><rect fill="#FEECCD" height="62.9766" rx="5" ry="5" style="stroke:#7A003C;stroke-width:1.0;" width="85" x="91" y="183.23"/><rect fill="#FEECCD" height="10" style="stroke:#7A003C;stroke-width:1.0;" width="15" x="156" y="188.23"/><rect fill="#FEECCD" height="2" style="stroke:#7A003C;stroke-width:1.0;" width="4" x="154" y="190.23"/><rect fill="#FEECCD" height="2" style="stroke:#7A003C;stroke-width:1.0;" width="4" x="154" y="194.23"/><text fill="#000000" font-family="sans-serif" font-size="14" lengthAdjust="spacing" textLength="29" x="106" y="216.7652">Web</text><text fill="#000000" font-family="sans-serif" font-size="14" lengthAdjust="spacing" textLength="45" x="106" y="233.2534">Admin</text></g><!--entity S--><g id="elem_S"><ellipse cx="30.5" cy="184.98" fill="#FEECCD" rx="8" ry="8" style="stroke:#7A003C;stroke-width:1.0;"/><path d="M30.5,192.98 L30.5,219.98 M17.5,200.98 L43.5,200.98 M30.5,219.98 L17.5,234.98 M30.5,219.98 L43.5,234.98 " fill="none" style="stroke:#7A003C;stroke-width:1.0;"/><text fill="#7A003C" font-family="sans-serif" font-size="14" lengthAdjust="spacing" textLength="31" x="15" y="250.5152">Staff</text></g><!--link Imenu_lookup to menu--><g id="link_Imenu_lookup_menu"><path d="M40.79,38.49 C50.86,38.49 65.5,38.49 65.5,38.49 C65.5,38.49 75.67,38.49 84.88,38.49 " fill="none" id="Imenu_lookup-menu" style="stroke:#7A003C;stroke-width:1.0;"/></g><!--link menu to Imenu_mgmt--><g id="link_menu_Imenu_mgmt"><path d="M133.5,70.2 C133.5,85.96 133.5,103.91 133.5,114 " fill="none" id="menu-Imenu_mgmt" style="stroke:#7A003C;stroke-width:1.0;"/></g><!--link Ibilling to billing--><g id="link_Ibilling_billing"><path d="M298.83,390.95 C308.17,390.95 321.17,390.95 321.17,390.95 C321.17,390.95 333.85,390.95 343.16,390.95 " fill="none" id="Ibilling-billing" style="stroke:#7A003C;stroke-width:1.0;"/></g><!--link Ipending to billing--><g id="link_Ipending_billing"><path d="M384.5,315.67 C384.5,327.66 384.5,350.37 384.5,367.54 " fill="none" id="Ipending-billing" style="stroke:#7A003C;stroke-width:1.0;"/></g><!--link Iloyalty to patrons--><g id="link_Iloyalty_patrons"><path d="M334.5,131.94 C334.5,143.35 334.5,164.98 334.5,183.13 " fill="none" id="Iloyalty-patrons" style="stroke:#7A003C;stroke-width:1.0;"/></g><!--link Ipatrons_mgmt to patrons--><g id="link_Ipatrons_mgmt_patrons"><path d="M239.97,214.72 C250.24,214.72 265.17,214.72 265.17,214.72 C265.17,214.72 274.95,214.72 284.12,214.72 " fill="none" id="Ipatrons_mgmt-patrons" style="stroke:#7A003C;stroke-width:1.0;"/></g><!--link ordering to Ibilling--><g id="link_ordering_Ibilling"><path d="M235.88,390.95 C245.05,390.95 254.83,390.95 254.83,390.95 C254.83,390.95 264.88,390.95 274.16,390.95 " fill="none" id="ordering-to-Ibilling" style="stroke:#7A003C;stroke-width:1.0;stroke-dasharray:7.0,7.0;"/><polygon fill="#7A003C" points="279.03,390.95,270.03,386.95,274.03,390.95,270.03,394.95,279.03,390.95" style="stroke:#7A003C;stroke-width:1.0;"/></g><!--link Ilist_impeding to ordering--><g id="link_Ilist_impeding_ordering"><path d="M90.97,390.95 C101.24,390.95 116.17,390.95 116.17,390.95 C116.17,390.95 125.95,390.95 135.12,390.95 " fill="none" id="Ilist_impeding-ordering" style="stroke:#7A003C;stroke-width:1.0;"/></g><!--link Iprocess_order to ordering--><g id="link_Iprocess_order_ordering"><path d="M184.6,315.37 C184.72,325.45 184.94,343.47 185.13,359.27 " fill="none" id="Iprocess_order-ordering" style="stroke:#7A003C;stroke-width:1.0;"/></g><!--reverse link Ipending to mosaic--><g id="link_Ipending_mosaic"><path d="M399.74,306.46 C409.82,306.46 421.17,306.46 421.17,306.46 C421.17,306.46 429.77,306.46 438.64,306.46 " fill="none" id="Ipending-backto-mosaic" style="stroke:#7A003C;stroke-width:1.0;stroke-dasharray:7.0,7.0;"/><polygon fill="#7A003C" points="394.75,306.46,403.75,310.46,399.75,306.46,403.75,302.46,394.75,306.46" style="stroke:#7A003C;stroke-width:1.0;"/></g><!--link S to web--><g id="link_S_web"><path d="M46.46,214.72 C55.43,214.72 64.83,214.72 64.83,214.72 C64.83,214.72 75.26,214.72 84.62,214.72 " fill="none" id="S-to-web" style="stroke:#7A003C;stroke-width:1.0;stroke-dasharray:7.0,7.0;"/><polygon fill="#7A003C" points="89.5,214.72,80.5,210.72,84.5,214.72,80.5,218.72,89.5,214.72" style="stroke:#7A003C;stroke-width:1.0;"/></g><!--link web to Ipatrons_mgmt--><g id="link_web_Ipatrons_mgmt"><path d="M176.42,214.72 C185.85,214.72 198.17,214.72 198.17,214.72 C198.17,214.72 207.14,214.72 215.63,214.72 " fill="none" id="web-to-Ipatrons_mgmt" style="stroke:#7A003C;stroke-width:1.0;stroke-dasharray:7.0,7.0;"/><polygon fill="#7A003C" points="220.32,214.72,211.32,210.72,215.32,214.72,211.32,218.72,220.32,214.72" style="stroke:#7A003C;stroke-width:1.0;"/></g><!--reverse link Imenu_mgmt to web--><g id="link_Imenu_mgmt_web"><path d="M133.5,137.65 C133.5,149.69 133.5,167.67 133.5,183.13 " fill="none" id="Imenu_mgmt-backto-web" style="stroke:#7A003C;stroke-width:1.0;stroke-dasharray:7.0,7.0;"/><polygon fill="#7A003C" points="133.5,132.94,129.5,141.94,133.5,137.94,137.5,141.94,133.5,132.94" style="stroke:#7A003C;stroke-width:1.0;"/></g><!--link web to Iprocess_order--><g id="link_web_Iprocess_order"><path d="M151.05,246.6 C160.05,262.43 170.51,280.84 177.3,292.8 " fill="none" id="web-to-Iprocess_order" style="stroke:#7A003C;stroke-width:1.0;stroke-dasharray:7.0,7.0;"/><polygon fill="#7A003C" points="180.15,296.81,179.1995,287.0071,177.6878,292.4583,172.2367,290.9466,180.15,296.81" style="stroke:#7A003C;stroke-width:1.0;"/></g><!--link web to Ilist_impeding--><g id="link_web_Ilist_impeding"><path d="M124.32,246.47 C112.94,284.61 94.01,348.03 85.67,375.98 " fill="none" id="web-to-Ilist_impeding" style="stroke:#7A003C;stroke-width:1.0;stroke-dasharray:7.0,7.0;"/><polygon fill="#7A003C" points="83.96,380.69,90.3672,373.2102,85.3902,375.8989,82.7014,370.9219,83.96,380.69" style="stroke:#7A003C;stroke-width:1.0;"/></g><!--SRC=[dPD1Q-Cm48Nl-XLJNROjnBsqjn3eBZq46ZQGGo-6eDXg4957mbAwctzVQMJPSbkwi8A0zFH6y-d9kLBOw7CheQhkzivVjBopvqvND6NkfD2ANdJG2pmvQG4U2X5DAwDu_y3O3xZzUiGTMAENFGeDlqnd3Khq3cw_gM5Dza4dyGnX20Ty4-OrRdlpfbhPStPz0_pPcDFPSaWZkDQnOgz99iT6e3ZA6cCrdnpTiVEiDCE2cZ7gk5YKjeBdeBHMUCn8FzCoiSJ5xpwY5JX30Hcs4jimht6DRqOrqYKUcsIMlO4aL-Mz29Ir4iSAtnjqnBAbURWeNNZCvoAql_09I2U5vKayUZXcbbSwBYEcnP1QkOAfkk0oCOR87S4eamzSuHN3_LsDGs3K96bxAaxqolbrPsMC87bqKFPgaDZOfbfDISyzWI-xsBn3lFYuzOyl-Edl_t_1nWdLJ5y4tv30ORcKmwchrVJGosgeO9-P2ANHAXuhhFs2e6pCN-IXniUsKqZP_P47zjXuqmFVUV7wIkAEiLrCBsw67mKvV-pnRn3Ggib7njc3ZVByZTu1]--></g></svg>