<?xml version="1.0" encoding="us-ascii" standalone="no"?><svg xmlns="http://www.w3.org/2000/svg" xmlns:xlink="http://www.w3.org/1999/xlink" contentStyleType="text/css" height="605px" preserveAspectRatio="none" style="width:781px;height:605px;background:#FFFFFF;" version="1.1" viewBox="0 0 781 605" width="781px" zoomAndPan="magnify"><defs/><g><!--class Patron--><g id="elem_Patron"><rect codeLine="4" fill="#FEECCD" height="72.9766" id="Patron" rx="5" ry="5" style="stroke:#7A003C;stroke-width:1.0;" width="140" x="188" y="190.93"/><ellipse cx="231.35" cy="206.93" fill="#ADD1B2" rx="11" ry="11" style="stroke:#181818;stroke-width:1.0;"/><path d="M233.8231,213.0731 Q233.2421,213.3719 232.6029,213.5213 Q231.9638,213.6707 231.2582,213.6707 Q228.7514,213.6707 227.4315,212.0189 Q226.1117,210.367 226.1117,207.2459 Q226.1117,204.1165 227.4315,202.4647 Q228.7514,200.8128 231.2582,200.8128 Q231.9638,200.8128 232.6112,200.9622 Q233.2587,201.1116 233.8231,201.4105 L233.8231,204.1331 Q233.1923,203.5521 232.5988,203.2823 Q232.0053,203.0125 231.3744,203.0125 Q230.0297,203.0125 229.3449,204.0792 Q228.6601,205.1458 228.6601,207.2459 Q228.6601,209.3377 229.3449,210.4044 Q230.0297,211.471 231.3744,211.471 Q232.0053,211.471 232.5988,211.2012 Q233.1923,210.9315 233.8231,210.3504 Z " fill="#000000"/><text fill="#000000" font-family="sans-serif" font-size="14" lengthAdjust="spacing" textLength="45" x="251.65" y="212.221">Patron</text><line style="stroke:#7A003C;stroke-width:1.0;" x1="189" x2="327" y1="222.93" y2="222.93"/><ellipse cx="199" cy="236.6741" fill="none" rx="3" ry="3" style="stroke:#038048;stroke-width:1.0;"/><text fill="#000000" font-family="sans-serif" font-size="14" lengthAdjust="spacing" textLength="114" x="208" y="240.4652">firstname: String</text><ellipse cx="199" cy="253.1624" fill="none" rx="3" ry="3" style="stroke:#038048;stroke-width:1.0;"/><text fill="#000000" font-family="sans-serif" font-size="14" lengthAdjust="spacing" textLength="111" x="208" y="256.9534">lastname: String</text></g><!--class CommunityMember--><g id="elem_CommunityMember"><rect codeLine="9" fill="#FEECCD" height="72.9766" id="CommunityMember" rx="5" ry="5" style="stroke:#7A003C;stroke-width:1.0;" width="167" x="174.5" y="358.37"/><ellipse cx="189.5" cy="374.37" fill="#ADD1B2" rx="11" ry="11" style="stroke:#181818;stroke-width:1.0;"/><path d="M191.9731,380.5131 Q191.3921,380.8119 190.7529,380.9613 Q190.1138,381.1107 189.4082,381.1107 Q186.9014,381.1107 185.5815,379.4589 Q184.2617,377.807 184.2617,374.6859 Q184.2617,371.5565 185.5815,369.9047 Q186.9014,368.2528 189.4082,368.2528 Q190.1138,368.2528 190.7612,368.4022 Q191.4087,368.5516 191.9731,368.8505 L191.9731,371.5731 Q191.3423,370.9921 190.7488,370.7223 Q190.1553,370.4525 189.5244,370.4525 Q188.1797,370.4525 187.4949,371.5192 Q186.8101,372.5858 186.8101,374.6859 Q186.8101,376.7777 187.4949,377.8444 Q188.1797,378.911 189.5244,378.911 Q190.1553,378.911 190.7488,378.6412 Q191.3423,378.3715 191.9731,377.7904 Z " fill="#000000"/><text fill="#000000" font-family="sans-serif" font-size="14" lengthAdjust="spacing" textLength="135" x="203.5" y="379.661">CommunityMember</text><line style="stroke:#7A003C;stroke-width:1.0;" x1="175.5" x2="340.5" y1="390.37" y2="390.37"/><ellipse cx="185.5" cy="404.1141" fill="none" rx="3" ry="3" style="stroke:#038048;stroke-width:1.0;"/><text fill="#000000" font-family="sans-serif" font-size="14" lengthAdjust="spacing" textLength="91" x="194.5" y="407.9052">macID: String</text><ellipse cx="185.5" cy="420.6024" fill="none" rx="3" ry="3" style="stroke:#038048;stroke-width:1.0;"/><text fill="#000000" font-family="sans-serif" font-size="14" lengthAdjust="spacing" textLength="111" x="194.5" y="424.3934">identifier: String</text></g><!--class Credentials--><g id="elem_Credentials"><rect codeLine="14" fill="#FEECCD" height="72.9766" id="Credentials" rx="5" ry="5" style="stroke:#7A003C;stroke-width:1.0;" width="227" x="134.5" y="31.73"/><ellipse cx="204.75" cy="47.73" fill="#ADD1B2" rx="11" ry="11" style="stroke:#181818;stroke-width:1.0;"/><path d="M207.2231,53.8731 Q206.6421,54.1719 206.0029,54.3213 Q205.3638,54.4707 204.6582,54.4707 Q202.1514,54.4707 200.8315,52.8189 Q199.5117,51.167 199.5117,48.0459 Q199.5117,44.9165 200.8315,43.2647 Q202.1514,41.6128 204.6582,41.6128 Q205.3638,41.6128 206.0112,41.7622 Q206.6587,41.9116 207.2231,42.2105 L207.2231,44.9331 Q206.5923,44.3521 205.9988,44.0823 Q205.4053,43.8125 204.7744,43.8125 Q203.4297,43.8125 202.7449,44.8792 Q202.0601,45.9458 202.0601,48.0459 Q202.0601,50.1377 202.7449,51.2044 Q203.4297,52.271 204.7744,52.271 Q205.4053,52.271 205.9988,52.0012 Q206.5923,51.7315 207.2231,51.1504 Z " fill="#000000"/><text fill="#000000" font-family="sans-serif" font-size="14" lengthAdjust="spacing" textLength="78" x="225.25" y="53.021">Credentials</text><line style="stroke:#7A003C;stroke-width:1.0;" x1="135.5" x2="360.5" y1="63.73" y2="63.73"/><ellipse cx="145.5" cy="77.4741" fill="none" rx="3" ry="3" style="stroke:#038048;stroke-width:1.0;"/><text fill="#000000" font-family="sans-serif" font-size="14" lengthAdjust="spacing" textLength="84" x="154.5" y="81.2652">login: String</text><rect fill="none" height="6" style="stroke:#C82930;stroke-width:1.0;" width="6" x="142.5" y="90.9624"/><text fill="#000000" font-family="sans-serif" font-size="14" lengthAdjust="spacing" textLength="201" x="154.5" y="97.7534">&#171;encrypted&#187; password: String</text></g><!--class LoyaltyCard--><g id="elem_LoyaltyCard"><rect codeLine="20" fill="#FEECCD" height="56.4883" id="LoyaltyCard" rx="5" ry="5" style="stroke:#7A003C;stroke-width:1.0;" width="136" x="7" y="199.17"/><ellipse cx="32.8" cy="215.17" fill="#ADD1B2" rx="11" ry="11" style="stroke:#181818;stroke-width:1.0;"/><path d="M35.2731,221.3131 Q34.6921,221.6119 34.0529,221.7613 Q33.4138,221.9107 32.7082,221.9107 Q30.2014,221.9107 28.8815,220.2589 Q27.5617,218.607 27.5617,215.4859 Q27.5617,212.3565 28.8815,210.7047 Q30.2014,209.0528 32.7082,209.0528 Q33.4138,209.0528 34.0612,209.2022 Q34.7087,209.3516 35.2731,209.6505 L35.2731,212.3731 Q34.6423,211.7921 34.0488,211.5223 Q33.4553,211.2525 32.8244,211.2525 Q31.4797,211.2525 30.7949,212.3192 Q30.1101,213.3858 30.1101,215.4859 Q30.1101,217.5777 30.7949,218.6444 Q31.4797,219.711 32.8244,219.711 Q33.4553,219.711 34.0488,219.4412 Q34.6423,219.1715 35.2731,218.5904 Z " fill="#000000"/><text fill="#000000" font-family="sans-serif" font-size="14" lengthAdjust="spacing" textLength="80" x="49.2" y="220.461">LoyaltyCard</text><line style="stroke:#7A003C;stroke-width:1.0;" x1="8" x2="142" y1="231.17" y2="231.17"/><ellipse cx="18" cy="244.9141" fill="none" rx="3" ry="3" style="stroke:#038048;stroke-width:1.0;"/><text fill="#000000" font-family="sans-serif" font-size="14" lengthAdjust="spacing" textLength="110" x="27" y="248.7052">balance: Integer</text></g><!--class PAYMENT_TYPE--><g id="elem_PAYMENT_TYPE"><rect codeLine="25" fill="#FEECCD" height="122.4414" id="PAYMENT_TYPE" rx="5" ry="5" style="stroke:#7A003C;stroke-width:1.0;" width="217" x="406.5" y="7"/><ellipse cx="457.25" cy="23" fill="#EB937F" rx="11" ry="11" style="stroke:#181818;stroke-width:1.0;"/><path d="M460.8643,29.5 L453.1445,29.5 L453.1445,17.1069 L460.8643,17.1069 L460.8643,19.2651 L455.5933,19.2651 L455.5933,21.938 L460.3662,21.938 L460.3662,24.0962 L455.5933,24.0962 L455.5933,27.3418 L460.8643,27.3418 Z " fill="#000000"/><text fill="#000000" font-family="sans-serif" font-size="14" lengthAdjust="spacing" textLength="107" x="477.75" y="28.291">PAYMENT_TYPE</text><line style="stroke:#7A003C;stroke-width:1.0;" x1="407.5" x2="622.5" y1="39" y2="39"/><ellipse cx="417.5" cy="52.7441" fill="none" rx="3" ry="3" style="stroke:#038048;stroke-width:1.0;"/><text fill="#000000" font-family="sans-serif" font-size="14" lengthAdjust="spacing" textLength="125" x="426.5" y="56.5352">&#171;External&#187; CREDIT</text><ellipse cx="417.5" cy="69.2324" fill="none" rx="3" ry="3" style="stroke:#038048;stroke-width:1.0;"/><text fill="#000000" font-family="sans-serif" font-size="14" lengthAdjust="spacing" textLength="114" x="426.5" y="73.0234">&#171;External&#187; DEBIT</text><ellipse cx="417.5" cy="85.7207" fill="none" rx="3" ry="3" style="stroke:#038048;stroke-width:1.0;"/><text fill="#000000" font-family="sans-serif" font-size="14" lengthAdjust="spacing" textLength="135" x="426.5" y="89.5117">&#171;External&#187; INTERAC</text><ellipse cx="417.5" cy="102.209" fill="none" rx="3" ry="3" style="stroke:#038048;stroke-width:1.0;"/><text fill="#000000" font-family="sans-serif" font-size="14" lengthAdjust="spacing" textLength="150" x="426.5" y="106">&#171;Internal&#187; MEAL_PLAN</text><ellipse cx="417.5" cy="118.6973" fill="none" rx="3" ry="3" style="stroke:#038048;stroke-width:1.0;"/><text fill="#000000" font-family="sans-serif" font-size="14" lengthAdjust="spacing" textLength="191" x="426.5" y="122.4883">&#171;Internal&#187; EXPENSE_REPORT</text></g><!--class STATUS--><g id="elem_STATUS"><rect codeLine="33" fill="#FEECCD" height="105.9531" id="STATUS" rx="5" ry="5" style="stroke:#7A003C;stroke-width:1.0;" width="118" x="606" y="174.44"/><ellipse cx="635.4" cy="190.44" fill="#EB937F" rx="11" ry="11" style="stroke:#181818;stroke-width:1.0;"/><path d="M639.0143,196.94 L631.2945,196.94 L631.2945,184.5469 L639.0143,184.5469 L639.0143,186.7051 L633.7433,186.7051 L633.7433,189.378 L638.5162,189.378 L638.5162,191.5362 L633.7433,191.5362 L633.7433,194.7818 L639.0143,194.7818 Z " fill="#000000"/><text fill="#000000" font-family="sans-serif" font-size="14" lengthAdjust="spacing" textLength="54" x="652.6" y="195.731">STATUS</text><line style="stroke:#7A003C;stroke-width:1.0;" x1="607" x2="723" y1="206.44" y2="206.44"/><ellipse cx="617" cy="220.1841" fill="none" rx="3" ry="3" style="stroke:#038048;stroke-width:1.0;"/><text fill="#000000" font-family="sans-serif" font-size="14" lengthAdjust="spacing" textLength="66" x="626" y="223.9752">RECEIVED</text><ellipse cx="617" cy="236.6724" fill="none" rx="3" ry="3" style="stroke:#038048;stroke-width:1.0;"/><text fill="#000000" font-family="sans-serif" font-size="14" lengthAdjust="spacing" textLength="92" x="626" y="240.4634">IN_PROGRESS</text><ellipse cx="617" cy="253.1607" fill="none" rx="3" ry="3" style="stroke:#038048;stroke-width:1.0;"/><text fill="#000000" font-family="sans-serif" font-size="14" lengthAdjust="spacing" textLength="46" x="626" y="256.9517">READY</text><ellipse cx="617" cy="269.649" fill="none" rx="3" ry="3" style="stroke:#038048;stroke-width:1.0;"/><text fill="#000000" font-family="sans-serif" font-size="14" lengthAdjust="spacing" textLength="45" x="626" y="273.44">PAYED</text></g><!--class Order--><g id="elem_Order"><rect codeLine="40" fill="#FEECCD" height="72.9766" id="Order" rx="5" ry="5" style="stroke:#7A003C;stroke-width:1.0;" width="128" x="433" y="190.93"/><ellipse cx="473.2" cy="206.93" fill="#A9DCDF" rx="11" ry="11" style="stroke:#181818;stroke-width:1.0;"/><path d="M473.0633,202.2781 L471.9095,207.3499 L474.2254,207.3499 Z M471.5691,200.0369 L474.5657,200.0369 L477.9109,212.43 L475.4622,212.43 L474.6985,209.367 L471.4197,209.367 L470.6727,212.43 L468.2239,212.43 Z " fill="#000000"/><text fill="#000000" font-family="sans-serif" font-size="14" font-style="italic" lengthAdjust="spacing" textLength="40" x="492.8" y="212.221">Order</text><line style="stroke:#7A003C;stroke-width:1.0;" x1="434" x2="560" y1="222.93" y2="222.93"/><ellipse cx="444" cy="236.6741" fill="none" rx="3" ry="3" style="stroke:#038048;stroke-width:1.0;"/><text fill="#000000" font-family="sans-serif" font-size="14" lengthAdjust="spacing" textLength="96" x="453" y="240.4652">received: Date</text><ellipse cx="444" cy="253.1624" fill="none" rx="3" ry="3" style="stroke:#038048;stroke-width:1.0;"/><text fill="#000000" font-family="sans-serif" font-size="14" lengthAdjust="spacing" textLength="102" x="453" y="256.9534">delivered: Date</text></g><!--class MealBoxOrder--><g id="elem_MealBoxOrder"><rect codeLine="47" fill="#FEECCD" height="56.4883" id="MealBoxOrder" rx="5" ry="5" style="stroke:#7A003C;stroke-width:1.0;" width="130" x="423" y="366.62"/><ellipse cx="438" cy="382.62" fill="#ADD1B2" rx="11" ry="11" style="stroke:#181818;stroke-width:1.0;"/><path d="M440.4731,388.7631 Q439.8921,389.0619 439.2529,389.2113 Q438.6138,389.3607 437.9082,389.3607 Q435.4014,389.3607 434.0815,387.7089 Q432.7617,386.057 432.7617,382.9359 Q432.7617,379.8065 434.0815,378.1547 Q435.4014,376.5028 437.9082,376.5028 Q438.6138,376.5028 439.2612,376.6522 Q439.9087,376.8016 440.4731,377.1005 L440.4731,379.8231 Q439.8423,379.2421 439.2488,378.9723 Q438.6553,378.7025 438.0244,378.7025 Q436.6797,378.7025 435.9949,379.7692 Q435.3101,380.8358 435.3101,382.9359 Q435.3101,385.0277 435.9949,386.0944 Q436.6797,387.161 438.0244,387.161 Q438.6553,387.161 439.2488,386.8912 Q439.8423,386.6215 440.4731,386.0404 Z " fill="#000000"/><text fill="#000000" font-family="sans-serif" font-size="14" lengthAdjust="spacing" textLength="98" x="452" y="387.911">MealBoxOrder</text><line style="stroke:#7A003C;stroke-width:1.0;" x1="424" x2="552" y1="398.62" y2="398.62"/><ellipse cx="434" cy="412.3641" fill="none" rx="3" ry="3" style="stroke:#038048;stroke-width:1.0;"/><text fill="#000000" font-family="sans-serif" font-size="14" lengthAdjust="spacing" textLength="85" x="443" y="416.1552">pickup: Date</text></g><!--class MealBoxItem--><g id="elem_MealBoxItem"><rect codeLine="53" fill="#FEECCD" height="56.4883" id="MealBoxItem" rx="5" ry="5" style="stroke:#7A003C;stroke-width:1.0;" width="139" x="418.5" y="525.81"/><ellipse cx="442.05" cy="541.81" fill="#ADD1B2" rx="11" ry="11" style="stroke:#181818;stroke-width:1.0;"/><path d="M444.5231,547.9531 Q443.9421,548.2519 443.3029,548.4013 Q442.6638,548.5507 441.9582,548.5507 Q439.4514,548.5507 438.1315,546.8989 Q436.8117,545.247 436.8117,542.1259 Q436.8117,538.9965 438.1315,537.3447 Q439.4514,535.6928 441.9582,535.6928 Q442.6638,535.6928 443.3112,535.8422 Q443.9587,535.9916 444.5231,536.2905 L444.5231,539.0131 Q443.8923,538.4321 443.2988,538.1623 Q442.7053,537.8925 442.0744,537.8925 Q440.7297,537.8925 440.0449,538.9592 Q439.3601,540.0258 439.3601,542.1259 Q439.3601,544.2177 440.0449,545.2844 Q440.7297,546.351 442.0744,546.351 Q442.7053,546.351 443.2988,546.0812 Q443.8923,545.8115 444.5231,545.2304 Z " fill="#000000"/><text fill="#000000" font-family="sans-serif" font-size="14" lengthAdjust="spacing" textLength="88" x="457.95" y="547.101">MealBoxItem</text><line style="stroke:#7A003C;stroke-width:1.0;" x1="419.5" x2="556.5" y1="557.81" y2="557.81"/><ellipse cx="429.5" cy="571.5541" fill="none" rx="3" ry="3" style="stroke:#038048;stroke-width:1.0;"/><text fill="#000000" font-family="sans-serif" font-size="14" lengthAdjust="spacing" textLength="113" x="438.5" y="575.3452">quantity: Integer</text></g><!--class MealBox--><g id="elem_MealBox"><rect codeLine="57" fill="#FEECCD" height="89.4648" id="MealBox" rx="5" ry="5" style="stroke:#7A003C;stroke-width:1.0;" width="152" x="221" y="509.33"/><ellipse cx="263.9" cy="525.33" fill="#ADD1B2" rx="11" ry="11" style="stroke:#181818;stroke-width:1.0;"/><path d="M266.3731,531.4731 Q265.7921,531.7719 265.1529,531.9213 Q264.5138,532.0707 263.8082,532.0707 Q261.3014,532.0707 259.9815,530.4189 Q258.6617,528.767 258.6617,525.6459 Q258.6617,522.5165 259.9815,520.8647 Q261.3014,519.2128 263.8082,519.2128 Q264.5138,519.2128 265.1612,519.3622 Q265.8087,519.5116 266.3731,519.8105 L266.3731,522.5331 Q265.7423,521.9521 265.1488,521.6823 Q264.5553,521.4125 263.9244,521.4125 Q262.5797,521.4125 261.8949,522.4792 Q261.2101,523.5458 261.2101,525.6459 Q261.2101,527.7377 261.8949,528.8044 Q262.5797,529.871 263.9244,529.871 Q264.5553,529.871 265.1488,529.6012 Q265.7423,529.3315 266.3731,528.7504 Z " fill="#000000"/><text fill="#000000" font-family="sans-serif" font-size="14" lengthAdjust="spacing" textLength="58" x="284.1" y="530.621">MealBox</text><line style="stroke:#7A003C;stroke-width:1.0;" x1="222" x2="372" y1="541.33" y2="541.33"/><ellipse cx="232" cy="555.0741" fill="none" rx="3" ry="3" style="stroke:#038048;stroke-width:1.0;"/><text fill="#000000" font-family="sans-serif" font-size="14" lengthAdjust="spacing" textLength="87" x="241" y="558.8652">name: String</text><ellipse cx="232" cy="571.5624" fill="none" rx="3" ry="3" style="stroke:#038048;stroke-width:1.0;"/><text fill="#000000" font-family="sans-serif" font-size="14" lengthAdjust="spacing" textLength="126" x="241" y="575.3534">description: String</text><ellipse cx="232" cy="588.0507" fill="none" rx="3" ry="3" style="stroke:#038048;stroke-width:1.0;"/><text fill="#000000" font-family="sans-serif" font-size="14" lengthAdjust="spacing" textLength="76" x="241" y="591.8417">price: Float</text></g><!--class MealBoxMenu--><g id="elem_MealBoxMenu"><rect codeLine="65" fill="#FEECCD" height="32" id="MealBoxMenu" rx="5" ry="5" style="stroke:#7A003C;stroke-width:1.0;" width="128" x="48" y="538.06"/><ellipse cx="63" cy="554.06" fill="#ADD1B2" rx="11" ry="11" style="stroke:#181818;stroke-width:1.0;"/><path d="M65.4731,560.2031 Q64.8921,560.5019 64.2529,560.6513 Q63.6138,560.8007 62.9082,560.8007 Q60.4014,560.8007 59.0815,559.1489 Q57.7617,557.497 57.7617,554.3759 Q57.7617,551.2465 59.0815,549.5947 Q60.4014,547.9428 62.9082,547.9428 Q63.6138,547.9428 64.2612,548.0922 Q64.9087,548.2416 65.4731,548.5405 L65.4731,551.2631 Q64.8423,550.6821 64.2488,550.4123 Q63.6553,550.1425 63.0244,550.1425 Q61.6797,550.1425 60.9949,551.2092 Q60.3101,552.2758 60.3101,554.3759 Q60.3101,556.4677 60.9949,557.5344 Q61.6797,558.601 63.0244,558.601 Q63.6553,558.601 64.2488,558.3312 Q64.8423,558.0615 65.4731,557.4804 Z " fill="#000000"/><text fill="#000000" font-family="sans-serif" font-size="14" lengthAdjust="spacing" textLength="96" x="77" y="559.351">MealBoxMenu</text></g><!--class CateringOrder--><g id="elem_CateringOrder"><rect codeLine="69" fill="#FEECCD" height="138.9297" id="CateringOrder" rx="5" ry="5" style="stroke:#7A003C;stroke-width:1.0;" width="176" x="598" y="325.4"/><ellipse cx="633.25" cy="341.4" fill="#ADD1B2" rx="11" ry="11" style="stroke:#181818;stroke-width:1.0;"/><path d="M635.7231,347.5431 Q635.1421,347.8419 634.5029,347.9913 Q633.8638,348.1407 633.1582,348.1407 Q630.6514,348.1407 629.3315,346.4889 Q628.0117,344.837 628.0117,341.7159 Q628.0117,338.5865 629.3315,336.9347 Q630.6514,335.2828 633.1582,335.2828 Q633.8638,335.2828 634.5112,335.4322 Q635.1587,335.5816 635.7231,335.8805 L635.7231,338.6031 Q635.0923,338.0221 634.4988,337.7523 Q633.9053,337.4825 633.2744,337.4825 Q631.9297,337.4825 631.2449,338.5492 Q630.5601,339.6158 630.5601,341.7159 Q630.5601,343.8077 631.2449,344.8744 Q631.9297,345.941 633.2744,345.941 Q633.9053,345.941 634.4988,345.6712 Q635.0923,345.4015 635.7231,344.8204 Z " fill="#000000"/><text fill="#000000" font-family="sans-serif" font-size="14" lengthAdjust="spacing" textLength="99" x="651.75" y="346.691">CateringOrder</text><line style="stroke:#7A003C;stroke-width:1.0;" x1="599" x2="773" y1="357.4" y2="357.4"/><ellipse cx="609" cy="371.1441" fill="none" rx="3" ry="3" style="stroke:#038048;stroke-width:1.0;"/><text fill="#000000" font-family="sans-serif" font-size="14" lengthAdjust="spacing" textLength="107" x="618" y="374.9352">claimant: String</text><ellipse cx="609" cy="387.6324" fill="none" rx="3" ry="3" style="stroke:#038048;stroke-width:1.0;"/><text fill="#000000" font-family="sans-serif" font-size="14" lengthAdjust="spacing" textLength="111" x="618" y="391.4234">approver: String</text><ellipse cx="609" cy="404.1207" fill="none" rx="3" ry="3" style="stroke:#038048;stroke-width:1.0;"/><text fill="#000000" font-family="sans-serif" font-size="14" lengthAdjust="spacing" textLength="138" x="618" y="407.9117">email: EmailAddress</text><ellipse cx="609" cy="420.609" fill="none" rx="3" ry="3" style="stroke:#038048;stroke-width:1.0;"/><text fill="#000000" font-family="sans-serif" font-size="14" lengthAdjust="spacing" textLength="150" x="618" y="424.4">phone: PhoneNumber</text><ellipse cx="609" cy="437.0973" fill="none" rx="3" ry="3" style="stroke:#038048;stroke-width:1.0;"/><text fill="#000000" font-family="sans-serif" font-size="14" lengthAdjust="spacing" textLength="120" x="618" y="440.8883">chartCode: String</text><ellipse cx="609" cy="453.5855" fill="none" rx="3" ry="3" style="stroke:#038048;stroke-width:1.0;"/><text fill="#000000" font-family="sans-serif" font-size="14" lengthAdjust="spacing" textLength="126" x="618" y="457.3766">description: String</text></g><!--reverse link Patron to CommunityMember--><g id="link_Patron_CommunityMember"><path d="M258,285.29 C258,309.41 258,336.8 258,358.03 " fill="none" id="Patron-backto-CommunityMember" style="stroke:#7A003C;stroke-width:1.0;"/><polygon fill="none" points="251,285.32,258,265.32,265,285.32,251,285.32" style="stroke:#7A003C;stroke-width:1.0;"/></g><!--link Credentials to Patron--><g id="link_Credentials_Patron"><path codeLine="18" d="M251.15,118.8 C252.33,137.28 253.66,158.25 254.84,176.73 " fill="none" id="Credentials-Patron" style="stroke:#7A003C;stroke-width:1.0;"/><polygon fill="#7A003C" points="250.27,105.89,246.8411,115.1227,250.5829,110.8802,254.8254,114.622,250.27,105.89" style="stroke:#7A003C;stroke-width:1.0;"/><line style="stroke:#7A003C;stroke-width:1.0;" x1="250.5829" x2="251.095" y1="110.8802" y2="118.865"/><polygon fill="#7A003C" points="255.72,189.62,259.3362,183.3812,254.9682,177.6436,251.3519,183.8824,255.72,189.62" style="stroke:#7A003C;stroke-width:1.0;"/></g><!--link LoyaltyCard to Patron--><g id="link_LoyaltyCard_Patron"><path codeLine="23" d="M157.4,227.42 C162.78,227.42 168.58,227.42 174.03,227.42 " fill="none" id="LoyaltyCard-Patron" style="stroke:#7A003C;stroke-width:1.0;"/><polygon fill="#7A003C" points="144.48,227.42,153.48,231.42,149.48,227.42,153.48,223.42,144.48,227.42" style="stroke:#7A003C;stroke-width:1.0;"/><line style="stroke:#7A003C;stroke-width:1.0;" x1="149.48" x2="157.48" y1="227.42" y2="227.42"/><polygon fill="#7A003C" points="186.87,227.42,180.87,223.42,174.87,227.42,180.87,231.42,186.87,227.42" style="stroke:#7A003C;stroke-width:1.0;"/></g><!--link Order to STATUS--><g id="link_Order_STATUS"><path codeLine="44" d="M574.99,227.42 C580.62,227.42 586.6,227.42 591.94,227.42 " fill="none" id="Order-STATUS" style="stroke:#7A003C;stroke-width:1.0;"/><polygon fill="#7A003C" points="562.26,227.42,568.26,231.42,574.26,227.42,568.26,223.42,562.26,227.42" style="stroke:#7A003C;stroke-width:1.0;"/><polygon fill="#7A003C" points="604.68,227.42,595.68,223.42,599.68,227.42,595.68,231.42,604.68,227.42" style="stroke:#7A003C;stroke-width:1.0;"/><line style="stroke:#7A003C;stroke-width:1.0;" x1="599.68" x2="591.68" y1="227.42" y2="227.42"/></g><!--link PAYMENT_TYPE to Order--><g id="link_PAYMENT_TYPE_Order"><path codeLine="45" d="M506.52,143.26 C505.22,154.59 503.91,166.05 502.7,176.68 " fill="none" id="PAYMENT_TYPE-Order" style="stroke:#7A003C;stroke-width:1.0;"/><polygon fill="#7A003C" points="508.09,130.55,503.0969,139.0393,507.524,135.5179,511.0454,139.945,508.09,130.55" style="stroke:#7A003C;stroke-width:1.0;"/><line style="stroke:#7A003C;stroke-width:1.0;" x1="507.524" x2="506.61" y1="135.5179" y2="143.465"/><polygon fill="#7A003C" points="501.1,189.59,505.7535,184.0814,502.4585,177.6671,497.8049,183.1757,501.1,189.59" style="stroke:#7A003C;stroke-width:1.0;"/></g><!--reverse link Order to MealBoxOrder--><g id="link_Order_MealBoxOrder"><path d="M493.92,285.12 C492.42,312.52 490.7,344.16 489.5,366.22 " fill="none" id="Order-backto-MealBoxOrder" style="stroke:#7A003C;stroke-width:1.0;"/><polygon fill="none" points="486.97,284.91,495.05,265.32,500.95,285.67,486.97,284.91" style="stroke:#7A003C;stroke-width:1.0;"/></g><!--link MealBoxOrder to MealBoxItem--><g id="link_MealBoxOrder_MealBoxItem"><path codeLine="51" d="M488,437.3 C488,460.21 488,488.59 488,511.51 " fill="none" id="MealBoxOrder-MealBoxItem" style="stroke:#7A003C;stroke-width:1.0;"/><polygon fill="#7A003C" points="488,424.6,484,430.6,488,436.6,492,430.6,488,424.6" style="stroke:#7A003C;stroke-width:1.0;"/><polygon fill="#7A003C" points="488,524.33,492,515.33,488,519.33,484,515.33,488,524.33" style="stroke:#7A003C;stroke-width:1.0;"/><line style="stroke:#7A003C;stroke-width:1.0;" x1="488" x2="488" y1="519.33" y2="511.33"/><text fill="#000000" font-family="sans-serif" font-size="13" lengthAdjust="spacing" textLength="6" x="481.3438" y="515.0083">*</text></g><!--reverse link MealBox to MealBoxItem--><g id="link_MealBox_MealBoxItem"><path codeLine="63" d="M379.03,554.06 C392.3,554.06 409.4,554.06 418.32,554.06 " fill="none" id="MealBox-backto-MealBoxItem" style="stroke:#7A003C;stroke-width:1.0;"/><polygon fill="#7A003C" points="374.25,554.06,383.25,558.06,379.25,554.06,383.25,550.06,374.25,554.06" style="stroke:#7A003C;stroke-width:1.0;"/></g><!--link MealBoxMenu to MealBox--><g id="link_MealBoxMenu_MealBox"><path codeLine="67" d="M190.06,554.06 C195.25,554.06 201.15,554.06 206.93,554.06 " fill="none" id="MealBoxMenu-MealBox" style="stroke:#7A003C;stroke-width:1.0;"/><polygon fill="#7A003C" points="177.32,554.06,183.32,558.06,189.32,554.06,183.32,550.06,177.32,554.06" style="stroke:#7A003C;stroke-width:1.0;"/><polygon fill="#7A003C" points="219.6,554.06,210.6,550.06,214.6,554.06,210.6,558.06,219.6,554.06" style="stroke:#7A003C;stroke-width:1.0;"/><line style="stroke:#7A003C;stroke-width:1.0;" x1="214.6" x2="206.6" y1="554.06" y2="554.06"/></g><!--reverse link Order to CateringOrder--><g id="link_Order_CateringOrder"><path d="M553.8,278.14 C570.64,292.88 589.39,309.29 607.35,325.02 " fill="none" id="Order-backto-CateringOrder" style="stroke:#7A003C;stroke-width:1.0;"/><polygon fill="none" points="549.45,282.76,539.01,264.32,558.67,272.22,549.45,282.76" style="stroke:#7A003C;stroke-width:1.0;"/></g><!--link Patron to Order--><g id="link_Patron_Order"><path codeLine="79" d="M342.16,227.42 C367.73,227.42 417.33,227.42 417.33,227.42 C417.33,227.42 417.83,227.42 418.75,227.42 " fill="none" id="Patron-Order" style="stroke:#7A003C;stroke-width:1.0;"/><polygon fill="#7A003C" points="329.22,227.42,335.2244,231.4134,341.22,227.4068,335.2156,223.4134,329.22,227.42" style="stroke:#7A003C;stroke-width:1.0;"/><polygon fill="#7A003C" points="431.69,227.42,422.69,223.42,426.69,227.42,422.69,231.42,431.69,227.42" style="stroke:#7A003C;stroke-width:1.0;"/><line style="stroke:#7A003C;stroke-width:1.0;" x1="426.69" x2="418.69" y1="227.42" y2="227.42"/><text fill="#000000" font-family="sans-serif" font-size="13" lengthAdjust="spacing" textLength="6" x="418.9073" y="224.1393">*</text></g><!--SRC=[ZLHHRvim47xdLtXzp9JqlKALA7WJKa8Gi6bvYXnyJQqPmupfYgR-znt4M915rPwmxxxxxhix7v-4AcN7WMmszyVMz1BkcwwIc_7e4UALahKjIPdHjI9_q4B8P_8iT6iKg-21v4OBTRPsn2xDxvub2EkgwfGm_Gwg4sW2RmOK_uUuOcKSNP4A3ig8Pm7w1gs6qSjawpXaVHPgmR4clW-gr7rZW3y-aWP3VzUQp_ZcHFvwlRB2fZpRkcVIz27JtEKvCSbKYRN6oi0PDBBCOVwC15HNaJGux6XI78j3IXs9xrFiX5PCegumer5StF94zEcs8quAcWMXSmrQh6j7W-qntGR9BIVzaT8afyUCflki61ewQioBeFYMEtKP3MdydKRs6YV7DDj_pMYUEq0G7UmPwqCaCh5JQpGh3RdqRgyv3doYr522U0NiVSGCM2C7YJRjhE_U9MYrVhIIl4NtnWcDa6b0Es3ogNwxX4sFQvcv4UNFhd4Pl4N8QesfxbPt4r5ieBhY7aoEx5V7yBMOVZxz9Tn1R-m9XxRKeZ6YLbUUHelXINsHDJCpaLZn1yfsE3i77IvZu-pThGgMFIJwg4M851KMTYMADOskNsVxTp53nOHy87Ju19nhQDkfYfTQOHNfy4cwOU6d12zCcx3c_zCGhDwpluUL7OuTkUVz1G00]--></g></svg>